<?xml version="1.0" encoding="UTF-8"?>
<!DOCTYPE svg PUBLIC "-//W3C//DTD SVG 1.1//EN" "http://www.w3.org/Graphics/SVG/1.1/DTD/svg11.dtd">
<svg version="1.1" xmlns="http://www.w3.org/2000/svg" xmlns:xlink="http://www.w3.org/1999/xlink" x="0" y="0" width="511.996" height="511.996" viewBox="0, 0, 511.996, 511.996">
  <g id="Layer_1">
    <path d="M222.975,34.775 C222.975,49.836 210.766,62.045 195.705,62.045 C180.644,62.045 168.435,49.836 168.435,34.775 C168.435,19.714 180.644,7.505 195.705,7.505 C210.766,7.505 222.975,19.714 222.975,34.775 z" fill="#FF0132"/>
    <path d="M211.19,51.408 C196.43,54.386 182.049,44.835 179.071,30.074 C177.708,23.322 178.974,16.653 182.155,11.115 C172.24,16.791 166.594,28.354 168.978,40.167 C171.956,54.928 186.337,64.479 201.097,61.5 C209.105,59.884 215.574,54.908 219.347,48.34 C216.872,49.758 214.137,50.813 211.19,51.408 z" fill="#000000" opacity="0.1"/>
    <path d="M115.415,470.838 C113.56,470.838 111.676,470.431 109.893,469.57 C103.564,466.516 100.909,458.909 103.963,452.579 C114.151,431.464 135.795,419.213 170.13,415.128 C189.415,412.833 196.272,403.079 209.601,377.838 C212.883,371.623 220.581,369.243 226.796,372.528 C233.011,375.81 235.389,383.508 232.107,389.723 C217.245,417.866 205.112,436.596 173.137,440.401 C148.123,443.377 132.994,450.979 126.886,463.639 C124.69,468.187 120.146,470.838 115.415,470.838 z" fill="#FFC300"/>
    <path d="M133.497,454.788 C127.468,447.897 119.085,442.977 112.379,439.908 C109.009,443.707 106.207,447.928 103.962,452.58 C100.908,458.91 103.563,466.517 109.892,469.571 C111.675,470.431 113.558,470.839 115.414,470.839 C120.145,470.839 124.69,468.188 126.884,463.641 C128.472,460.349 130.676,457.403 133.497,454.788 z" fill="#FCD79D"/>
    <path d="M232.107,389.723 C235.389,383.508 233.011,375.81 226.796,372.528 C220.58,369.243 212.883,371.624 209.601,377.838 C196.272,403.079 189.415,412.834 170.13,415.128 C169.506,415.202 168.895,415.285 168.279,415.365 C173.702,422.236 180.014,428.49 187.14,433.922 C188.195,434.726 189.272,435.501 190.356,436.266 C210.147,428.581 220.266,412.144 232.107,389.723 z" fill="#A35F00" opacity="0.2"/>
    <g>
      <path d="M240.961,504.499 C229.716,504.499 220.6,495.383 220.6,484.138 L220.6,416.27 C220.6,405.025 229.716,395.909 240.961,395.909 C252.206,395.909 261.322,405.025 261.322,416.27 L261.322,484.139 C261.322,495.385 252.207,504.499 240.961,504.499 z" fill="#FFC300"/>
      <path d="M338.184,485.655 C328.829,487.271 319.324,482.142 315.757,472.95 L291.2,409.68 C287.131,399.197 292.331,387.4 302.814,383.331 C313.297,379.264 325.094,384.462 329.162,394.945 L353.719,458.216 C357.788,468.699 352.588,480.496 342.105,484.564 C340.812,485.066 339.499,485.427 338.184,485.655 z" fill="#FFC300"/>
      <path d="M332.255,351.31 C331.42,351.31 330.597,351.297 329.778,351.271 C318.539,350.907 309.722,341.5 310.087,330.261 C310.451,319.022 319.883,310.222 331.096,310.57 C343.968,310.99 368.175,304.595 391.375,294.664 C401.714,290.239 413.681,295.032 418.106,305.371 C422.531,315.709 417.737,327.676 407.4,332.101 C396.67,336.693 360.287,351.31 332.255,351.31 z" fill="#FFC300"/>
    </g>
    <path d="M370.342,327.71 C368.751,319.825 366.205,312.205 362.821,304.974 C350.017,308.73 338.618,310.816 331.095,310.571 C319.882,310.223 310.45,319.023 310.086,330.262 C309.721,341.501 318.537,350.908 329.777,351.272 C330.596,351.298 331.419,351.311 332.255,351.311 C344.941,351.311 359.332,348.315 372.286,344.612 C372.116,339.011 371.483,333.363 370.342,327.71 z" fill="#A35F00" opacity="0.2"/>
    <path d="M117.405,390.932 C116.849,390.932 116.336,390.93 115.867,390.927 C104.623,390.857 95.563,381.685 95.633,370.44 C95.702,359.239 104.805,350.206 115.991,350.206 C116.035,350.206 116.077,350.206 116.12,350.206 C141.362,350.362 166.164,346.86 177.852,341.492 C188.069,336.798 200.157,341.277 204.853,351.495 C209.547,361.714 205.068,373.802 194.849,378.496 C170.103,389.863 131.08,390.932 117.405,390.932 z" fill="#FFC300"/>
    <path d="M204.852,351.496 C200.156,341.277 188.068,336.798 177.851,341.492 C171.006,344.636 159.661,347.138 146.367,348.641 C146.075,356.565 146.717,364.56 148.321,372.508 C149.449,378.1 151.071,383.555 153.114,388.838 C167.361,387.121 182.796,384.032 194.848,378.496 C205.067,373.803 209.546,361.714 204.852,351.496 z" fill="#A35F00" opacity="0.2"/>
    <path d="M77.846,422.164 C68.198,422.164 60.268,414.458 60.043,404.761 C59.814,394.925 67.604,386.765 77.44,386.537 C81.118,386.451 84.543,384.939 87.084,382.278 C89.624,379.618 90.976,376.127 90.891,372.45 C90.715,364.858 84.361,358.819 76.803,359.001 C66.916,359.239 58.806,351.44 58.579,341.603 C58.35,331.767 66.14,323.607 75.976,323.379 C76.364,323.37 76.754,323.366 77.138,323.366 C103.854,323.366 125.889,344.777 126.511,371.623 C126.817,384.815 121.968,397.338 112.855,406.883 C103.742,416.428 91.458,421.853 78.266,422.159 C78.126,422.163 77.986,422.164 77.846,422.164 z" fill="#FFE11F"/>
    <g>
      <path d="M329.162,394.946 C325.093,384.463 313.297,379.265 302.814,383.332 C292.331,387.401 287.131,399.197 291.2,409.681 L305.528,446.596 C318.651,440.747 330.304,432.684 340.057,423.018 L329.162,394.946 z" fill="#A35F00" opacity="0.2"/>
      <path d="M256.573,456.999 C258.154,456.999 259.738,456.958 261.323,456.895 L261.323,416.271 C261.323,405.026 252.207,395.91 240.962,395.91 C229.717,395.91 220.601,405.026 220.601,416.271 L220.601,451.318 C232.102,455.037 244.264,456.999 256.573,456.999 z" fill="#A35F00" opacity="0.2"/>
    </g>
    <path d="M242.049,264.561 C292.884,254.303 341.822,284.283 351.355,331.524 C360.888,378.765 327.406,425.377 276.571,435.636 C225.735,445.894 176.797,415.914 167.264,368.673 C157.731,321.432 191.213,274.82 242.049,264.561 z" fill="#FFC300"/>
    <path d="M262.966,437.45 C215.327,418.32 216.943,359.084 219.089,332.888 L208.06,278.23 C177.352,297.825 160.093,333.073 167.278,368.683 C175.954,411.683 217.278,440.376 262.966,437.45 z" fill="#C17A00" opacity="0.15"/>
    <path d="M173.382,213.089 C188.345,194.34 195.252,166.54 162.276,134.158 C129.039,101.52 89.001,99.737 59.943,109.25 C52.779,111.595 47.664,118.004 46.966,125.51 C44.136,155.954 54.756,194.6 93.952,219.769 C132.843,244.739 158.419,231.838 173.382,213.089 z" fill="#C66402"/>
    <path d="M46.654,130.143 C45.28,159.792 56.717,195.858 93.952,219.768 C127.661,241.413 151.359,234.598 166.822,220.19 C138.055,140.231 80.617,129.078 46.654,130.143 z" fill="#FFFFFF"/>
    <path d="M285.423,190.481 C264.36,179.001 247.213,156.054 265.052,113.419 C283.032,70.447 319.246,53.278 349.719,50.778 C357.232,50.162 364.432,54.086 367.986,60.734 C382.4,87.699 387.597,127.438 361.226,165.838 C335.064,203.935 306.487,201.961 285.423,190.481 z" fill="#C66402"/>
    <path d="M370.071,64.884 C382.835,91.681 386.278,129.359 361.227,165.837 C338.549,198.86 314.062,201.768 294.223,194.483 C289.734,109.625 338.354,77.072 370.071,64.884 z" fill="#FFFFFF"/>
    <path d="M390.728,192.974 C405.187,264.631 341.354,310.175 254.799,327.64 C168.244,345.105 91.744,327.878 77.285,256.221 C62.825,184.563 121.271,112.315 207.825,94.85 C294.379,77.385 376.268,121.317 390.728,192.974 z" fill="#FFC300"/>
    <path d="M128.186,131.768 C88.933,163.618 67.966,210.04 77.285,256.222 C89.715,317.821 147.99,339.197 219.088,332.89 C107.235,293.405 104.07,210.575 128.186,131.768 z" fill="#C17A00" opacity="0.15"/>
    <path d="M253.279,233.889 L219.844,240.635 C210.622,242.496 201.638,236.528 199.777,227.306 L199.777,227.306 C197.916,218.084 203.884,209.1 213.106,207.239 L246.541,200.493 C255.763,198.632 264.747,204.6 266.608,213.822 L266.608,213.822 C268.468,223.044 262.501,232.028 253.279,233.889 z" fill="#8B3A17"/>
    <g opacity="0.1">
      <path d="M240.359,236.5 L233.62,203.107 L248.321,200.14 L255.06,233.533 z" fill="#FFFFFF"/>
      <path d="M218.081,240.986 L211.343,207.593 L226.044,204.626 L232.783,238.02 z" fill="#FFFFFF"/>
    </g>
    <path d="M310.682,186.287 C310.682,196.487 302.414,204.755 292.214,204.755 C282.014,204.755 273.746,196.487 273.746,186.287 C273.746,176.087 282.014,167.819 292.214,167.819 C302.414,167.819 310.682,176.087 310.682,186.287 z" fill="#8B3A17"/>
    <path d="M183.964,211.857 C183.964,222.057 175.696,230.325 165.496,230.325 C155.296,230.325 147.028,222.057 147.028,211.857 C147.028,201.657 155.296,193.389 165.496,193.389 C175.696,193.389 183.964,201.657 183.964,211.857 z" fill="#8B3A17"/>
    <path d="M436.131,349.746 C416.416,349.746 397.751,337.864 390.104,318.438 C385.269,306.159 385.507,292.733 390.771,280.632 C396.036,268.531 405.698,259.205 417.977,254.372 C427.137,250.769 437.477,255.269 441.081,264.424 C444.685,273.579 440.184,283.923 431.029,287.527 C427.606,288.875 424.913,291.474 423.445,294.848 C421.977,298.221 421.911,301.964 423.258,305.386 C426.041,312.452 434.049,315.94 441.118,313.157 C450.271,309.552 460.616,314.052 464.221,323.208 C467.826,332.364 463.325,342.707 454.17,346.312 C448.248,348.641 442.14,349.746 436.131,349.746 z" fill="#FFC300"/>
    <path d="M315.5,235.866 C322.804,236.308 339.665,240.875 345.582,243.636 C346.607,244.115 347.687,244.342 348.749,244.342 C351.572,244.342 354.277,242.739 355.55,240.012 C357.302,236.259 355.68,231.795 351.926,230.044 C344.401,226.531 325.823,221.462 316.406,220.893 C312.267,220.641 308.717,223.792 308.467,227.927 C308.216,232.061 311.366,235.616 315.5,235.866 z M317.446,213.572 C318.254,213.572 319.075,213.441 319.88,213.164 C326.803,210.789 344.133,208.589 350.653,208.886 C354.768,209.068 358.298,205.876 358.489,201.738 C358.679,197.6 355.478,194.092 351.341,193.901 C343.034,193.522 323.94,195.913 315.014,198.975 C311.096,200.319 309.009,204.585 310.354,208.503 C311.42,211.616 314.331,213.572 317.446,213.572 z M127.425,275.343 C124.645,278.413 124.88,283.157 127.95,285.937 C129.387,287.236 131.186,287.877 132.982,287.877 C135.026,287.877 137.063,287.046 138.543,285.411 C142.924,280.572 156.694,269.825 163.257,266.585 C166.971,264.751 168.495,260.254 166.661,256.54 C164.827,252.826 160.332,251.302 156.616,253.135 C148.155,257.312 132.998,269.188 127.425,275.343 z M149.403,232.393 C139.989,233.031 121.45,238.235 113.95,241.803 C110.21,243.582 108.62,248.057 110.399,251.797 C111.683,254.498 114.373,256.077 117.176,256.077 C118.256,256.077 119.353,255.843 120.393,255.348 C126.289,252.543 143.116,247.853 150.416,247.359 C154.549,247.079 157.672,243.501 157.392,239.369 C157.112,235.235 153.504,232.114 149.403,232.393 z M471.198,320.459 C468.72,314.167 463.941,309.216 457.741,306.519 C451.541,303.821 444.66,303.7 438.368,306.178 C435.149,307.444 431.503,305.857 430.236,302.64 C429.613,301.058 429.642,299.399 430.322,297.839 C431,296.281 432.193,295.129 433.774,294.506 C446.763,289.393 453.171,274.666 448.058,261.676 C442.945,248.692 428.218,242.285 415.229,247.393 C401.086,252.96 389.957,263.703 383.893,277.64 C381.974,282.051 380.639,286.614 379.881,291.24 C368.461,295.652 357.049,299.134 347.399,301.157 C347.259,300.928 347.119,300.698 346.977,300.47 C353.821,296.009 360.069,291.247 365.665,286.198 C394.182,260.473 405.39,227.725 398.078,191.491 C394.882,175.652 388.582,160.882 379.55,147.627 C391.465,118.223 389.734,85.512 374.599,57.199 C369.626,47.896 359.632,42.446 349.105,43.303 C318.385,45.823 290.72,61.073 272.457,85.359 C253.421,82.669 233.589,82.899 213.72,86.157 L209.768,66.57 C215.785,63.922 220.936,59.618 224.661,54.01 C229.799,46.275 231.616,37.002 229.779,27.9 L229.779,27.9 C227.943,18.797 222.672,10.954 214.936,5.817 C207.2,0.679 197.925,-1.14 188.825,0.698 C170.034,4.489 157.832,22.862 161.624,41.652 C164.906,57.919 179.116,69.241 195.064,69.531 L199.018,89.123 C179.44,93.825 161.069,101.304 144.566,111.165 C118.316,95.86 86.9,92.533 57.61,102.121 C47.584,105.403 40.474,114.311 39.499,124.815 C36.526,156.781 47.615,187.603 70.002,210.087 C66.817,225.809 66.738,241.866 69.934,257.704 C72.496,270.402 76.999,281.926 83.32,291.956 C85.53,295.461 90.161,296.512 93.664,294.303 C97.169,292.095 98.22,287.464 96.012,283.959 C90.665,275.475 86.839,265.644 84.638,254.737 C81.64,239.881 81.954,224.764 85.397,209.984 C85.533,209.566 85.635,209.14 85.695,208.709 C89.876,191.674 98.228,175.108 110.508,159.93 C120.928,147.048 133.607,135.858 147.979,126.677 C148.407,126.463 148.814,126.207 149.198,125.911 C167.031,114.733 187.412,106.621 209.304,102.203 C209.307,102.203 209.309,102.202 209.312,102.202 C209.315,102.201 209.317,102.201 209.32,102.2 C291.68,85.589 369.761,126.971 383.38,194.457 C389.674,225.649 380.335,252.767 355.622,275.06 C348.961,281.069 341.249,286.647 332.594,291.761 C332.531,291.798 332.467,291.833 332.405,291.872 C311.247,304.335 284.438,314.009 253.318,320.289 C195.548,331.946 147.316,326.973 117.518,306.283 C114.117,303.919 109.442,304.765 107.08,308.166 C104.717,311.569 105.56,316.242 108.963,318.604 C122.695,328.139 139.707,334.716 159.306,338.277 C159.26,338.563 159.217,338.849 159.174,339.135 C149.481,341.015 137.602,342.232 125.36,342.593 C122.977,338.801 120.132,335.264 116.849,332.06 C106.146,321.618 92.043,315.867 77.139,315.867 C76.698,315.867 76.251,315.872 75.803,315.882 C69.043,316.039 62.748,318.819 58.079,323.71 C53.409,328.602 50.925,335.019 51.082,341.777 C51.238,348.541 54.01,354.835 58.885,359.5 C63.773,364.177 70.178,366.652 76.985,366.499 C78.658,366.458 80.222,367.077 81.441,368.239 C82.662,369.402 83.356,370.96 83.394,372.623 C83.433,374.322 82.833,375.871 81.662,377.098 C80.487,378.328 78.968,378.999 77.268,379.039 C70.507,379.196 64.213,381.976 59.543,386.867 C54.874,391.759 52.389,398.175 52.546,404.935 C52.861,418.57 64.212,429.664 77.847,429.664 C78.048,429.664 78.247,429.662 78.443,429.657 C93.636,429.305 107.786,423.057 118.283,412.062 C122.257,407.899 125.524,403.244 128.034,398.242 C139.339,397.861 153.993,396.787 168.458,394.082 C170.718,398.363 173.318,402.427 176.21,406.262 C174.146,406.898 171.862,407.369 169.248,407.68 C132.165,412.092 108.603,425.712 97.212,449.319 C92.366,459.363 96.595,471.477 106.637,476.323 C109.405,477.659 112.36,478.336 115.419,478.336 C123.137,478.336 130.29,473.846 133.644,466.897 C138.551,456.727 151.761,450.496 174.028,447.846 C188.295,446.148 199.67,441.675 209.386,433.881 C210.612,434.506 211.852,435.107 213.107,435.683 L213.107,484.136 C213.107,499.498 225.605,511.997 240.967,511.997 C256.329,511.997 268.827,499.499 268.827,484.136 L268.827,444.447 C271.901,444.097 274.988,443.621 278.081,442.997 C283.695,441.864 289.11,440.309 294.304,438.387 L308.771,475.659 C312.972,486.487 323.454,493.445 334.762,493.445 C336.32,493.445 337.893,493.313 339.467,493.041 C341.287,492.726 343.089,492.226 344.825,491.552 C355.642,487.354 362.789,476.739 362.606,465.14 C362.541,461.038 359.197,457.758 355.109,457.758 C355.07,457.758 355.029,457.758 354.989,457.759 C350.847,457.824 347.543,461.234 347.608,465.376 C347.692,470.73 344.392,475.63 339.399,477.568 C338.59,477.882 337.753,478.114 336.912,478.26 C330.917,479.298 324.961,475.92 322.755,470.232 L307.991,432.194 C315.935,427.898 323.173,422.668 329.566,416.697 L337.089,436.079 C338.242,439.049 341.078,440.867 344.083,440.867 C344.985,440.867 345.903,440.703 346.795,440.357 C350.656,438.859 352.571,434.513 351.073,430.652 L340.838,404.281 C351.744,390.052 358.603,373.172 360.161,355.398 C374.524,352.286 388.431,347.602 398.998,343.571 C409.079,352.235 422.119,357.241 436.139,357.241 C443.263,357.241 450.256,355.91 456.923,353.284 C463.215,350.807 468.166,346.029 470.864,339.828 C473.553,333.632 473.675,326.752 471.198,320.459 z M98.844,150.497 C88.051,163.838 79.976,178.178 74.732,193.017 C58.563,173.459 54.588,152.103 54.114,137.631 C67.193,137.994 83.763,140.554 100.254,148.795 C99.784,149.361 99.308,149.924 98.844,150.497 z M110.731,137.349 C91.017,126.558 71.035,123.184 55.359,122.656 C56.647,119.725 59.126,117.408 62.276,116.376 C73.53,112.693 101.022,106.493 130.357,120.581 C123.362,125.711 116.801,131.313 110.731,137.349 z M199.613,54.15 C188.934,56.304 178.485,49.369 176.329,38.685 C174.174,28.002 181.111,17.557 191.794,15.401 C193.11,15.135 194.432,15.004 195.744,15.004 C199.594,15.004 203.359,16.133 206.64,18.311 C211.037,21.232 214.035,25.69 215.078,30.865 L215.078,30.865 C216.122,36.04 215.089,41.312 212.168,45.71 C209.247,50.109 204.788,53.106 199.613,54.15 z M313.803,96.374 C305.867,93.164 297.647,90.544 289.211,88.529 C310.79,64.166 338.535,59.22 350.334,58.253 C353.633,57.982 356.82,59.157 359.145,61.36 C344.902,67.926 327.789,78.784 313.803,96.374 z M368.571,133.726 C357.984,122.081 344.979,111.995 329.857,103.882 C329.208,103.534 328.55,103.199 327.896,102.86 C339.901,88.868 354.178,80.082 366.097,74.676 C371.272,88.2 375.89,109.428 368.571,133.726 z M107.431,401.705 C99.702,409.801 89.282,414.402 78.086,414.661 L77.845,414.664 C72.291,414.664 67.669,410.144 67.54,404.587 C67.476,401.833 68.488,399.218 70.391,397.225 C72.294,395.232 74.859,394.099 77.614,394.035 C83.294,393.903 88.583,391.567 92.508,387.457 C96.431,383.348 98.519,377.957 98.388,372.276 C98.256,366.603 95.913,361.313 91.789,357.381 C87.796,353.575 82.613,351.497 77.143,351.497 C76.97,351.497 76.795,351.499 76.622,351.503 C73.868,351.578 71.238,350.561 69.254,348.662 C67.27,346.763 66.141,344.195 66.077,341.429 C66.013,338.675 67.025,336.06 68.928,334.067 C70.83,332.074 73.396,330.942 76.146,330.877 C76.477,330.87 76.81,330.866 77.138,330.866 C99.705,330.866 118.492,349.228 119.014,371.798 C119.272,382.989 115.159,393.609 107.431,401.705 z M133.107,383.005 C133.788,379.235 134.099,375.369 134.008,371.451 C133.896,366.616 133.173,361.885 131.895,357.337 C141.213,356.85 150.218,355.897 158.178,354.554 C158.3,359.766 158.877,364.978 159.925,370.167 C160.597,373.497 161.47,376.738 162.492,379.904 C151.957,381.678 141.46,382.568 133.107,383.005 z M172.252,432.953 C144.49,436.256 127.442,445.227 120.131,460.38 C119.251,462.204 117.444,463.338 115.416,463.338 C114.633,463.338 113.872,463.162 113.154,462.815 C110.559,461.563 109.466,458.433 110.719,455.838 C119.705,437.214 139.429,426.334 171.017,422.575 C177.144,421.846 182.3,420.386 186.857,418.106 C189.596,420.674 192.49,423.083 195.524,425.323 C188.988,429.39 181.403,431.864 172.252,432.953 z M253.822,484.14 C253.822,491.231 248.052,497.001 240.962,497.001 C233.872,497.001 228.102,491.232 228.102,484.14 L228.102,441.208 C236.334,443.529 244.969,444.859 253.823,445.095 L253.823,484.14 L253.822,484.14 z M275.109,428.296 C268.894,429.55 262.715,430.152 256.64,430.151 C217.058,430.148 182.171,404.576 174.628,367.2 C173.213,360.185 172.819,353.119 173.435,346.082 C173.445,345.984 173.458,345.887 173.464,345.788 C173.631,343.967 173.861,342.148 174.164,340.333 C181.239,341.038 188.577,341.414 196.185,341.414 C214.827,341.413 234.994,339.287 256.282,334.992 C286.183,328.959 312.462,319.845 334.057,308.142 C335.098,309.793 336.09,311.467 336.992,313.183 C337.016,313.226 337.039,313.269 337.064,313.311 C340.3,319.494 342.637,326.086 344.035,333.018 C352.735,376.131 321.814,418.872 275.109,428.296 z M360.167,340.016 C359.881,336.703 359.41,333.378 358.738,330.05 C357.691,324.861 356.203,319.834 354.295,314.983 C362.147,313.135 370.812,310.523 379.587,307.359 C380.177,312.04 381.352,316.679 383.126,321.184 C384.567,324.846 386.356,328.286 388.435,331.485 C380.568,334.32 370.556,337.568 360.167,340.016 z M457.101,333.848 C456.001,336.374 453.984,338.322 451.419,339.331 C446.509,341.265 441.364,342.245 436.13,342.245 C419.026,342.245 403.333,331.573 397.081,315.689 C392.98,305.274 393.181,293.886 397.646,283.623 C402.112,273.359 410.307,265.449 420.72,261.35 C421.957,260.864 423.232,260.633 424.487,260.633 C428.605,260.633 432.504,263.113 434.1,267.168 C436.183,272.461 433.572,278.463 428.278,280.546 C422.991,282.628 418.831,286.644 416.567,291.851 C414.298,297.06 414.195,302.841 416.277,308.132 C420.576,319.046 432.947,324.43 443.863,320.132 C446.427,319.122 449.23,319.172 451.756,320.271 C454.282,321.37 456.231,323.388 457.24,325.952 C458.249,328.518 458.201,331.321 457.101,333.848 z" fill="#8B3A17"/>
  </g>
</svg>
