<?xml version="1.0" encoding="UTF-8"?>
<!DOCTYPE svg PUBLIC "-//W3C//DTD SVG 1.1//EN" "http://www.w3.org/Graphics/SVG/1.1/DTD/svg11.dtd">
<svg version="1.1" xmlns="http://www.w3.org/2000/svg" xmlns:xlink="http://www.w3.org/1999/xlink" x="0" y="0" width="512" height="512" viewBox="0, 0, 512, 512">
  <g id="Layer_1">
    <path d="M0,0 L512,0 L512,512 L0,512 L0,0 z" fill="#8BC34A"/>
    <g>
      <path d="M305.063,168.426 C290.232,154.738 267.159,155.687 253.52,170.469 L170.906,259.987 L170.906,97.969 C170.906,77.814 154.593,61.5 134.438,61.5 C114.282,61.5 97.969,77.814 97.969,97.969 L97.969,414.031 C97.969,434.162 114.282,450.5 134.438,450.5 C154.593,450.5 170.906,434.162 170.906,414.031 L170.906,367.497 L195.219,341.167 L248.876,432.484 C255.66,444.057 267.84,450.5 280.337,450.5 C286.609,450.5 292.979,448.895 298.766,445.467 C316.125,435.28 321.936,412.913 311.724,395.554 L246.907,285.175 L307.105,219.969 C320.768,205.163 319.845,182.066 305.063,168.426 z" fill="#FFFFFF"/>
      <path d="M414.031,316.781 C414.031,336.922 397.704,353.25 377.562,353.25 C357.421,353.25 341.094,336.922 341.094,316.781 C341.094,296.64 357.421,280.312 377.562,280.312 C397.704,280.312 414.031,296.64 414.031,316.781 z" fill="#FFFFFF"/>
    </g>
  </g>
</svg>
