<?xml version="1.0" encoding="UTF-8"?>
<!DOCTYPE svg PUBLIC "-//W3C//DTD SVG 1.1//EN" "http://www.w3.org/Graphics/SVG/1.1/DTD/svg11.dtd">
<svg version="1.1" xmlns="http://www.w3.org/2000/svg" xmlns:xlink="http://www.w3.org/1999/xlink" x="0" y="0" width="512" height="512" viewBox="0, 0, 512, 512">
  <g id="Layer_1">
    <path d="M0,0 L512,0 L512,512 L0,512 z" fill="#00C200"/>
    <g>
      <path d="M441.829,246.72 C442.69,242.186 443.116,238.372 443.311,235.38 C443.635,230.443 443.266,223.112 443.135,220.817 C438.587,141.716 356.52,78.695 255.947,78.695 C152.455,78.695 68.56,145.425 68.56,227.742 C68.56,303.403 139.437,365.895 231.262,375.507 C236.876,376.095 240.924,381.163 240.301,386.772 L236.392,421.962 C235.504,429.95 243.764,435.761 251.002,432.267 C328.582,394.827 374.973,356.308 402.675,322.938 C407.716,316.866 424.154,293.836 427.505,287.787 C434.619,274.946 439.523,261.156 441.829,246.72 z" fill="#FFFFFF"/>
      <path d="M152.908,257.935 L152.908,195.153 C152.908,189.86 148.616,185.568 143.322,185.568 L143.322,185.568 C138.028,185.568 133.737,189.86 133.737,195.153 L133.737,267.521 C133.737,272.814 138.028,277.106 143.322,277.106 L181.663,277.106 C186.957,277.106 191.248,272.814 191.248,267.521 L191.248,267.521 C191.248,262.227 186.957,257.935 181.663,257.935 L152.908,257.935 z" fill="#00C500"/>
      <path d="M212.034,277.106 L207.843,277.106 C203.706,277.106 200.353,273.753 200.353,269.616 L200.353,193.058 C200.353,188.922 203.706,185.568 207.843,185.568 L212.034,185.568 C216.17,185.568 219.524,188.922 219.524,193.058 L219.524,269.616 C219.524,273.753 216.17,277.106 212.034,277.106 z" fill="#00C500"/>
      <path d="M289.493,195.153 L289.493,239.363 C289.493,239.363 251.213,189.433 250.629,188.777 C248.8,186.724 246.105,185.461 243.113,185.575 C237.899,185.772 233.901,190.329 233.901,195.547 L233.901,267.519 C233.901,272.813 238.192,277.105 243.486,277.105 L243.486,277.105 C248.78,277.105 253.072,272.813 253.072,267.519 L253.072,223.578 C253.072,223.578 291.934,273.943 292.504,274.485 C294.2,276.089 296.477,277.082 298.99,277.105 C304.313,277.153 308.664,272.445 308.664,267.122 L308.664,195.153 C308.664,189.86 304.373,185.568 299.079,185.568 L299.079,185.568 C293.785,185.569 289.493,189.86 289.493,195.153 z" fill="#00C500"/>
      <path d="M380.552,195.153 L380.552,195.153 C380.552,189.86 376.26,185.568 370.966,185.568 L332.626,185.568 C327.332,185.568 323.04,189.86 323.04,195.153 L323.04,267.521 C323.04,272.814 327.332,277.106 332.626,277.106 L370.966,277.106 C376.26,277.106 380.552,272.814 380.552,267.521 L380.552,267.521 C380.552,262.227 376.26,257.935 370.966,257.935 L342.211,257.935 L342.211,240.921 L370.966,240.921 C376.26,240.921 380.552,236.63 380.552,231.336 L380.552,231.336 C380.552,226.042 376.26,221.75 370.966,221.75 L342.211,221.75 L342.211,204.737 L370.966,204.737 C376.26,204.739 380.552,200.447 380.552,195.153 z" fill="#00C500"/>
    </g>
  </g>
</svg>
