<?xml version="1.0" encoding="UTF-8"?>
<!DOCTYPE svg PUBLIC "-//W3C//DTD SVG 1.1//EN" "http://www.w3.org/Graphics/SVG/1.1/DTD/svg11.dtd">
<svg version="1.1" xmlns="http://www.w3.org/2000/svg" xmlns:xlink="http://www.w3.org/1999/xlink" x="0" y="0" width="512" height="512" viewBox="0, 0, 512, 512">
  <g id="Layer_1">
    <g>
      <path d="M0,0 L512,0 L512,512 L0,512 z" fill="#61A8DE"/>
      <path d="M403.15,113.021 L60.77,246.443 C49.68,250.765 50.352,266.679 61.767,270.05 L148.77,295.741 L181.239,398.77 C184.631,409.532 198.269,412.794 206.163,404.733 L251.146,358.804 L339.406,423.589 C350.207,431.517 365.589,425.626 368.332,412.512 L426.787,133.038 C429.65,119.348 416.181,107.943 403.15,113.021 z M360.225,175.043 L201.191,315.677 C199.606,317.079 198.597,319.019 198.361,321.122 L192.238,375.552 C192.038,377.327 189.554,377.562 189.024,375.857 L163.832,294.683 C162.678,290.966 164.183,286.94 167.489,284.889 L355.292,168.413 C359.61,165.732 364.032,171.677 360.225,175.043 z" fill="#FFFFFF"/>
    </g>
  </g>
</svg>
