<?xml version="1.0" encoding="UTF-8"?>
<!DOCTYPE svg PUBLIC "-//W3C//DTD SVG 1.1//EN" "http://www.w3.org/Graphics/SVG/1.1/DTD/svg11.dtd">
<svg version="1.1" xmlns="http://www.w3.org/2000/svg" xmlns:xlink="http://www.w3.org/1999/xlink" x="0" y="0" width="512" height="512" viewBox="0, 0, 512, 512">
  <g id="Layer_1">
    <path d="M0,0 L512,0 L512,512 L0,512 z" fill="#7D3DAF"/>
    <g>
      <path d="M417.926,165.039 L417.825,164.634 C409.646,131.571 372.774,96.091 338.913,88.71 L338.531,88.632 C283.761,78.183 228.228,78.183 173.47,88.632 L173.077,88.71 C139.227,96.091 102.355,131.571 94.165,164.634 L94.075,165.039 C83.964,211.213 83.964,258.04 94.075,304.214 L94.165,304.619 C102.005,336.271 136.132,370.12 168.729,379.429 L168.729,416.338 C168.729,429.696 185.008,436.257 194.266,426.617 L231.661,387.746 C239.771,388.2 247.886,388.453 256.001,388.453 C283.57,388.453 311.152,385.847 338.531,380.623 L338.913,380.544 C372.774,373.163 409.646,337.684 417.825,304.62 L417.926,304.215 C428.037,258.04 428.037,211.213 417.926,165.039 z M388.334,297.518 C382.874,319.089 354.877,345.906 332.632,350.861 C303.511,356.398 274.159,358.765 244.837,357.953 C244.254,357.937 243.693,358.163 243.286,358.581 C239.125,362.853 215.983,386.609 215.983,386.609 L186.941,416.415 C184.818,418.628 181.088,417.123 181.088,414.067 L181.088,352.926 C181.088,351.916 180.366,351.057 179.374,350.863 C179.369,350.862 179.363,350.861 179.357,350.86 C157.113,345.905 129.127,319.088 123.656,297.517 C114.556,255.78 114.556,213.47 123.656,171.734 C129.127,150.163 157.113,123.346 179.357,118.391 C230.217,108.718 281.784,108.718 332.632,118.391 C354.888,123.346 382.874,150.163 388.334,171.734 C397.444,213.472 397.444,255.781 388.334,297.518 z" fill="#FFFFFF"/>
      <path d="M304.389,325.741 C300.97,324.703 297.71,324.005 294.684,322.749 C263.321,309.737 234.457,292.95 211.593,267.217 C198.591,252.584 188.415,236.063 179.812,218.58 C175.733,210.289 172.295,201.673 168.791,193.113 C165.596,185.307 170.302,177.243 175.258,171.362 C179.908,165.842 185.892,161.618 192.372,158.505 C197.43,156.075 202.419,157.476 206.113,161.763 C214.098,171.031 221.434,180.774 227.373,191.518 C231.026,198.126 230.024,206.204 223.404,210.701 C221.795,211.794 220.329,213.077 218.831,214.312 C217.516,215.394 216.279,216.487 215.378,217.952 C213.731,220.633 213.652,223.794 214.713,226.708 C222.876,249.142 236.635,266.586 259.215,275.981 C262.828,277.485 266.457,279.235 270.619,278.75 C277.59,277.935 279.847,270.289 284.732,266.294 C289.507,262.39 295.608,262.338 300.752,265.593 C305.896,268.849 310.883,272.344 315.84,275.876 C320.706,279.343 325.55,282.735 330.038,286.687 C334.354,290.488 335.84,295.474 333.41,300.632 C328.961,310.078 322.487,317.936 313.149,322.953 C310.512,324.367 307.363,324.825 304.389,325.741 C300.97,324.702 307.363,324.825 304.389,325.741 z" fill="#FFFFFF"/>
      <path d="M256.086,147.704 C297.109,148.853 330.803,176.078 338.024,216.635 C339.254,223.546 339.692,230.611 340.239,237.625 C340.47,240.575 338.799,243.378 335.615,243.417 C332.327,243.456 330.847,240.705 330.634,237.755 C330.211,231.918 329.918,226.054 329.114,220.265 C324.867,189.706 300.499,164.423 270.081,158.998 C265.504,158.181 260.819,157.967 256.183,157.48 C253.251,157.172 249.412,156.995 248.763,153.351 C248.218,150.297 250.797,147.864 253.705,147.708 C254.496,147.664 255.292,147.7 256.086,147.704 C297.109,148.853 255.292,147.7 256.086,147.704 z" fill="#FFFFFF"/>
      <path d="M318.43,228.522 C318.362,229.034 318.326,230.238 318.026,231.373 C316.938,235.492 310.693,236.007 309.255,231.85 C308.829,230.617 308.765,229.214 308.763,227.886 C308.749,219.197 306.86,210.517 302.479,202.957 C297.975,195.187 291.093,188.655 283.022,184.703 C278.142,182.313 272.864,180.828 267.515,179.943 C265.177,179.556 262.814,179.321 260.465,178.995 C257.618,178.599 256.098,176.785 256.233,173.979 C256.359,171.35 258.28,169.46 261.145,169.621 C270.56,170.156 279.653,172.191 288.023,176.623 C305.043,185.637 314.766,199.864 317.604,218.862 C317.732,219.723 317.939,220.575 318.004,221.439 C318.164,223.573 318.266,225.708 318.43,228.522 C318.362,229.034 318.266,225.708 318.43,228.522 z" fill="#FFFFFF"/>
      <path d="M292.913,227.528 C289.481,227.59 287.644,225.69 287.29,222.544 C287.044,220.349 286.85,218.126 286.326,215.992 C285.295,211.788 283.06,207.891 279.524,205.315 C277.854,204.098 275.962,203.212 273.981,202.64 C271.463,201.913 268.849,202.113 266.336,201.498 C263.609,200.829 262.1,198.62 262.529,196.061 C262.919,193.732 265.185,191.914 267.73,192.099 C283.635,193.247 295.002,201.47 296.624,220.193 C296.739,221.515 296.874,222.911 296.58,224.175 C296.078,226.339 294.476,227.423 292.913,227.528 C289.481,227.59 294.476,227.423 292.913,227.528 z" fill="#FFFFFF"/>
    </g>
  </g>
</svg>
