<?xml version="1.0" encoding="UTF-8"?>
<!DOCTYPE svg PUBLIC "-//W3C//DTD SVG 1.1//EN" "http://www.w3.org/Graphics/SVG/1.1/DTD/svg11.dtd">
<svg version="1.1" xmlns="http://www.w3.org/2000/svg" xmlns:xlink="http://www.w3.org/1999/xlink" x="0" y="0" width="512" height="512" viewBox="0, 0, 512, 512">
  <g id="Layer_1">
    <path d="M0,0 L512,0 L512,512 L0,512 L0,0 z" fill="#2EC100"/>
    <g>
      <g>
        <path d="M441.714,302.429 C441.714,251.148 389.738,209.571 325.643,209.571 C261.548,209.571 209.571,251.148 209.571,302.429 C209.571,353.709 261.548,395.286 325.643,395.286 C336.182,395.286 346.211,393.8 355.938,391.688 L418.5,418.5 L396.864,375.252 C423.979,358.259 441.714,332.12 441.714,302.429 z" fill="#FFFFFF"/>
        <path d="M209.571,93.5 C132.639,93.5 70.286,145.477 70.286,209.571 C70.286,246.529 91.132,279.307 123.47,300.525 L105.107,337.25 L155.134,315.823 C165.859,319.63 177.002,322.764 188.911,324.227 C187.286,317.146 186.357,309.88 186.357,302.429 C186.357,238.427 248.827,186.357 325.643,186.357 C332.677,186.357 339.548,186.938 346.327,187.773 C334.07,134.102 277.543,93.5 209.571,93.5 z" fill="#FFFFFF"/>
      </g>
      <g>
        <path d="M180.554,163.143 C180.554,172.759 172.759,180.554 163.143,180.554 C153.527,180.554 145.732,172.759 145.732,163.143 C145.732,153.527 153.527,145.732 163.143,145.732 C172.759,145.732 180.554,153.527 180.554,163.143 z" fill="#2EC100"/>
        <path d="M273.411,163.143 C273.411,172.759 265.616,180.554 256,180.554 C246.384,180.554 238.589,172.759 238.589,163.143 C238.589,153.527 246.384,145.732 256,145.732 C265.616,145.732 273.411,153.527 273.411,163.143 z" fill="#2EC100"/>
        <path d="M308.232,279.214 C308.232,288.83 300.437,296.625 290.821,296.625 C281.206,296.625 273.411,288.83 273.411,279.214 C273.411,269.599 281.206,261.804 290.821,261.804 C300.437,261.804 308.232,269.599 308.232,279.214 z" fill="#2EC100"/>
        <path d="M377.875,279.214 C377.875,288.83 370.08,296.625 360.464,296.625 C350.849,296.625 343.054,288.83 343.054,279.214 C343.054,269.599 350.849,261.804 360.464,261.804 C370.08,261.804 377.875,269.599 377.875,279.214 z" fill="#2EC100"/>
      </g>
    </g>
  </g>
</svg>
