<?xml version="1.0" encoding="UTF-8"?>
<!DOCTYPE svg PUBLIC "-//W3C//DTD SVG 1.1//EN" "http://www.w3.org/Graphics/SVG/1.1/DTD/svg11.dtd">
<svg version="1.1" xmlns="http://www.w3.org/2000/svg" xmlns:xlink="http://www.w3.org/1999/xlink" x="0" y="0" width="512" height="512" viewBox="0, 0, 512, 512">
  <g id="Layer_1">
    <g>
      <path d="M499.843,427.458 C499.843,439.226 390.487,448.765 255.592,448.765 C120.699,448.765 11.35,439.226 11.35,427.458 C11.35,415.695 120.699,406.156 255.592,406.156 C390.486,406.156 499.843,415.695 499.843,427.458 z" fill="#8B3A17"/>
      <path d="M436.113,325.161 C432.529,321.05 428.261,317.673 423.485,315.056 C426.132,300.508 425.296,287.747 422.54,276.761 C451.495,211.997 434.112,161.428 405.643,141.816 C394.64,134.239 382.505,131.523 370.625,133.398 C369.187,128.157 367.331,123.215 365.072,118.849 C375.147,101.975 373.523,74.373 361.57,63.6 C348.062,51.424 316.689,54.953 302.625,68.856 C288.21,63.957 272.308,61.208 255.592,61.182 C238.883,61.208 222.981,63.957 208.559,68.856 C194.494,54.953 163.13,51.424 149.623,63.6 C137.663,74.372 136.05,101.975 146.121,118.849 C137.825,134.891 133.917,158.373 141.957,178.201 C79.754,204.007 57.715,250.375 63.807,283.447 C66.474,297.947 74.294,309.253 85.718,316.249 C81.755,318.685 78.149,321.639 75.072,325.162 C30.347,376.377 115.905,460.287 169.674,421.779 C194.899,434.959 224.257,442.559 255.592,442.593 C286.928,442.559 316.293,434.958 341.516,421.779 C395.288,460.286 480.846,376.376 436.113,325.161 z" fill="#FFC300"/>
      <path d="M255.592,427.099 C208.954,427.099 171.139,387.319 171.139,338.242 C171.139,289.173 208.954,249.388 255.592,249.388 C302.23,249.388 340.047,289.174 340.047,338.242 C340.047,387.318 302.229,427.099 255.592,427.099 z" fill="#FFFFFF"/>
      <path d="M255.592,181.812 C233.021,181.812 214.716,169.563 214.716,154.451 C214.716,139.348 233.022,127.094 255.592,127.094 C278.163,127.094 296.469,139.348 296.469,154.451 C296.469,169.563 278.163,181.812 255.592,181.812 z" fill="#FFFFFF"/>
      <g>
        <path d="M255.592,223.771 C188.633,223.771 149.777,191.252 149.777,191.252 C149.777,191.252 183.496,244.631 255.592,244.631 C327.68,244.631 361.398,191.252 361.398,191.252 C361.398,191.252 322.546,223.771 255.592,223.771 z" fill="#FF0032"/>
        <path d="M255.592,267.08 C245.861,267.08 237.961,259.182 237.961,249.446 C237.961,239.715 245.861,231.818 255.592,231.818 C265.333,231.818 273.224,239.714 273.224,249.446 C273.224,259.181 265.333,267.08 255.592,267.08 z" fill="#FF9B1E"/>
        <path d="M255.592,259.639 C247.303,259.639 240.575,252.924 240.575,244.631 C240.575,236.339 247.303,229.622 255.592,229.622 C263.88,229.622 270.601,236.339 270.601,244.631 C270.601,252.924 263.88,259.639 255.592,259.639 z" fill="#FFE11E"/>
      </g>
      <path d="M440.493,321.343 C437.408,317.804 433.841,314.707 429.852,312.102 C431.574,300.118 431.169,288.443 428.646,277.316 C457.816,210.379 439.021,157.753 408.937,137.03 C398.519,129.857 386.687,126.401 374.79,127.108 C373.841,124.253 372.778,121.545 371.612,119.007 C381.477,99.494 378.819,71.323 365.461,59.284 C359.079,53.532 349.287,50.364 337.89,50.364 C324.032,50.364 310.365,54.871 301.252,62.295 C286.701,57.724 271.36,55.397 255.583,55.372 C239.829,55.397 224.489,57.725 209.933,62.295 C200.82,54.872 187.155,50.364 173.3,50.364 C161.904,50.364 152.114,53.532 145.735,59.283 C132.376,71.316 129.716,99.486 139.581,119.005 C133.034,133.2 128.563,154.793 134.678,175.013 C107.427,187.221 85.975,204.39 72.425,224.896 C59.661,244.211 54.572,265.378 58.093,284.498 C60.483,297.497 66.567,308.328 75.85,316.251 C73.99,317.84 72.267,319.54 70.696,321.34 C55.369,338.891 52.57,362.144 63.017,385.137 C69.441,399.275 80.451,412.345 94.02,421.938 C108.115,431.903 124.09,437.391 139.004,437.391 C150.296,437.391 160.732,434.405 170.078,428.508 C196.151,441.5 225.637,448.37 255.586,448.404 L255.593,448.404 L255.599,448.404 C285.554,448.371 315.041,441.501 341.114,428.508 C350.458,434.404 360.894,437.39 372.188,437.391 C372.191,437.391 372.193,437.391 372.196,437.391 C387.108,437.391 403.081,431.906 417.173,421.944 C430.741,412.352 441.751,399.285 448.175,385.147 C458.622,362.149 455.821,338.893 440.493,321.343 z M343.934,402.636 C317.079,419.119 286.217,427.066 255.592,427.099 C224.967,427.066 194.114,419.12 167.248,402.636 C136.24,444.321 49.488,378.017 86.746,335.353 C88.167,333.721 89.78,332.278 91.524,330.991 C95.59,327.977 100.442,325.887 105.857,324.889 C108.349,324.419 110.96,324.181 113.656,324.181 C126.965,324.181 141.138,329.889 152.547,339.856 C152.629,339.93 152.702,340.015 152.789,340.097 C151.142,330.8 146.113,323.321 139.504,317.983 C147.931,312.637 153.551,304.121 155.047,293.438 C158.932,265.774 137.657,246.453 115.502,257.271 C125.441,260.13 132.555,266.637 136.482,274.1 C131.55,275.819 124.911,277.122 117.042,276.112 C125.404,283.643 134.058,284.468 139.724,283.906 C140.193,287.166 140.045,290.38 139.29,293.368 C133.816,294.166 125.549,294.231 116.442,290.302 C121.68,298.697 128.313,301.927 133.473,303.114 C129.589,306.565 123.939,308.732 116.353,308.754 C116.317,308.754 116.286,308.754 116.258,308.754 C96.199,308.754 82.29,298.248 79.043,280.637 C73.841,252.371 96.64,213.19 149.976,191.736 C158.991,202.759 173.5,211.253 195.478,214.403 C152.424,194.539 141.769,149.056 165.55,116.576 C153.649,112.249 151.69,82.586 159.995,75.105 C168.752,67.209 203.107,73.417 200.85,88.563 C217.882,80.514 236.781,76.705 255.593,76.677 C274.412,76.705 293.305,80.514 310.336,88.563 C308.087,73.417 342.433,67.209 351.198,75.105 C359.498,82.586 357.547,112.249 345.635,116.576 C350.576,123.326 353.995,130.637 355.965,138.155 C351.033,140.632 346.266,143.973 341.758,148.132 C326.173,138.858 304.56,145.518 307.191,147.78 C310.314,150.481 322.947,145.916 340.937,148.905 C340.531,149.298 340.104,149.65 339.711,150.052 C339.676,150.082 339.658,150.108 339.625,150.134 C337.12,152.655 335.004,155.319 333.216,158.056 C320.309,151.302 304.758,153.064 306.509,155.385 C308.606,158.151 318.353,157.32 331.493,160.968 C324.633,173.584 325.321,187.673 334.062,199.269 C334.624,200.003 335.223,200.646 335.802,201.325 C330.15,206.365 323.489,210.812 315.712,214.403 C325.798,212.957 334.269,210.361 341.403,206.937 C358.209,220.773 380.665,217.068 387.608,196.882 C378.557,201.881 368.919,202.313 360.864,199.814 C363.136,195.107 366.911,189.507 373.19,184.64 C361.958,185.223 355.251,190.77 351.637,195.17 C349.007,193.196 346.83,190.821 345.245,188.168 C348.56,183.74 354.369,177.854 363.58,174.185 C353.938,171.955 346.968,174.363 342.476,177.165 C342.792,171.982 345.236,166.446 350.595,161.072 C350.616,161.052 350.646,161.031 350.659,161.012 C364.849,146.828 382.104,144.414 396.852,154.575 C418.719,169.636 430.246,208.2 414.125,255.682 C403.065,236.008 387.614,226.114 387.614,226.114 C387.614,226.114 415.338,272.596 408.614,309.735 C405.06,309.044 401.35,308.68 397.525,308.68 C380.532,308.68 361.912,320.358 358.392,340.096 C358.478,340.014 358.551,339.929 358.638,339.855 C370.042,329.888 384.224,324.18 397.525,324.18 C400.231,324.18 402.839,324.418 405.328,324.888 C410.739,325.886 415.588,327.975 419.655,330.99 C421.409,332.277 423.015,333.72 424.44,335.352 C461.703,378.017 374.943,444.32 343.934,402.636 z M204.675,155.386 C202.059,158.856 187.445,156.649 169.189,164.711 C182.146,150.442 206.858,152.495 204.675,155.386 z M277.577,118.164 C280.12,111.264 287.265,107.997 287.265,107.997 C287.265,107.997 301.066,111.022 308.71,125.065 C310.476,128.304 300.698,118.286 277.577,118.164 z M202.475,125.065 C210.126,111.022 223.926,107.997 223.926,107.997 C223.926,107.997 231.071,111.264 233.614,118.164 C210.494,118.286 200.708,128.304 202.475,125.065 z M205.327,140.568 C201.376,142.386 189.527,133.54 169.645,132.033 C187.797,125.562 208.618,139.048 205.327,140.568 z M305.857,140.568 C302.575,139.048 323.386,125.562 341.549,132.033 C321.657,133.54 309.809,142.386 305.857,140.568 z M255.592,159.457 C196.248,175.916 205.282,138.31 231.842,132.18 C191.697,159.771 261.2,160.912 250.485,141.399 C245.979,139.918 241.099,136.731 241.099,131.938 C241.099,128.526 248.345,126.823 255.593,126.823 C262.842,126.823 270.09,128.526 270.09,131.938 C270.09,136.73 265.207,139.918 260.708,141.399 C249.995,160.912 319.482,159.771 279.352,132.18 C305.903,138.31 314.945,175.916 255.592,159.457 z M167.35,149.436 C183.003,138.213 206.742,145.412 203.999,147.782 C200.708,150.625 186.882,145.39 167.35,149.436 z" fill="#8B3A17"/>
      <path d="M144.75,363.478 C149.593,371.701 143.914,382.793 132.724,389.392 C121.533,395.986 109.083,395.593 104.232,387.368 C99.38,379.133 107.771,365.21 115.708,360.52 C123.637,355.847 139.892,355.242 144.75,363.478 z M366.441,363.478 C361.595,371.701 367.269,382.793 378.468,389.392 C389.651,395.986 402.111,395.593 406.959,387.368 C411.805,379.133 403.414,365.21 395.476,360.52 C387.558,355.847 371.294,355.242 366.441,363.478 z M100.494,342.193 C97.534,344.214 97.188,348.869 99.731,352.59 C102.274,356.318 106.729,357.694 109.698,355.673 C112.667,353.645 113.004,348.988 110.467,345.266 C107.925,341.545 103.462,340.162 100.494,342.193 z M400.725,345.267 C398.19,348.99 398.518,353.646 401.489,355.674 C404.457,357.695 408.917,356.319 411.461,352.591 C414.004,348.869 413.65,344.214 410.691,342.194 C407.725,340.162 403.268,341.545 400.725,345.267 z M86.144,358.805 C83.873,361.582 84.871,366.151 88.366,369 C91.862,371.846 96.53,371.895 98.802,369.113 C101.067,366.332 100.07,361.772 96.583,358.925 C93.083,356.08 88.408,356.027 86.144,358.805 z M414.612,358.926 C411.122,361.773 410.116,366.332 412.392,369.114 C414.655,371.895 419.331,371.846 422.821,369.001 C426.315,366.151 427.311,361.583 425.041,358.806 C422.778,356.027 418.105,356.08 414.612,358.926 z M117.274,344.796 C118.654,349.085 122.537,351.684 125.952,350.583 C129.374,349.481 131.024,345.115 129.653,340.824 C128.269,336.527 124.385,333.94 120.963,335.041 C117.546,336.143 115.897,340.508 117.274,344.796 z M390.23,335.041 C386.805,333.94 382.911,336.527 381.538,340.824 C380.16,345.115 381.813,349.481 385.234,350.583 C388.654,351.684 392.541,349.085 393.909,344.796 C395.296,340.508 393.646,336.143 390.23,335.041 z M172.275,109.422 C172.275,109.422 178.445,98.769 192.979,91.749 C185.106,78.678 170.223,80.856 166.954,82.914 C163.686,84.969 162.959,102.642 172.275,109.422 z M344.236,82.914 C340.967,80.856 326.084,78.678 318.214,91.749 C332.745,98.769 338.908,109.422 338.908,109.422 C348.23,102.642 347.505,84.969 344.236,82.914 z" fill="#C66402"/>
    </g>
  </g>
</svg>
