<?xml version="1.0" encoding="utf-8"?>
<!-- Generator: Adobe Illustrator 16.0.2, SVG Export Plug-In . SVG Version: 6.00 Build 0)  -->
<!DOCTYPE svg PUBLIC "-//W3C//DTD SVG 1.1//EN" "http://www.w3.org/Graphics/SVG/1.1/DTD/svg11.dtd">
<svg version="1.1" id="Слой_1" xmlns="http://www.w3.org/2000/svg" xmlns:xlink="http://www.w3.org/1999/xlink" x="0px" y="0px"
	 width="1000px" height="1000px" viewBox="0 0 1000 1000" enable-background="new 0 0 1000 1000" xml:space="preserve">
<g>
	<path fill="#8B3A17" d="M742.843,593.458c0,11.768-109.356,21.307-244.251,21.307c-134.893,0-244.242-9.539-244.242-21.307
		c0-11.763,109.349-21.302,244.242-21.302C633.486,572.156,742.843,581.695,742.843,593.458z"/>
	<path fill="#FFC300" d="M679.113,491.161c-3.584-4.111-7.852-7.488-12.628-10.105c2.647-14.548,1.811-27.309-0.945-38.295
		c28.955-64.764,11.572-115.333-16.897-134.945c-11.003-7.577-23.138-10.293-35.018-8.418c-1.438-5.241-3.294-10.183-5.553-14.549
		c10.075-16.874,8.451-44.476-3.502-55.249c-13.508-12.176-44.881-8.647-58.945,5.256c-14.415-4.899-30.317-7.648-47.033-7.674
		c-16.709,0.026-32.611,2.775-47.033,7.674c-14.065-13.903-45.429-17.432-58.936-5.256c-11.96,10.772-13.573,38.375-3.502,55.249
		c-8.296,16.042-12.204,39.524-4.164,59.352c-62.203,25.806-84.242,72.174-78.15,105.246c2.667,14.5,10.487,25.806,21.911,32.802
		c-3.963,2.436-7.569,5.39-10.646,8.913c-44.725,51.215,40.833,135.125,94.602,96.617c25.225,13.18,54.583,20.78,85.918,20.814
		c31.336-0.034,60.701-7.635,85.924-20.814C638.288,626.286,723.846,542.376,679.113,491.161z"/>
	<path fill="#FFFFFF" d="M498.592,593.099c-46.638,0-84.453-39.78-84.453-88.857c0-49.069,37.815-88.854,84.453-88.854
		s84.455,39.786,84.455,88.854C583.047,553.318,545.229,593.099,498.592,593.099z"/>
	<path fill="#FFFFFF" d="M498.592,347.812c-22.571,0-40.876-12.249-40.876-27.361c0-15.103,18.306-27.357,40.876-27.357
		c22.571,0,40.877,12.254,40.877,27.357C539.469,335.563,521.163,347.812,498.592,347.812z"/>
	<g>
		<path fill="#FF0032" d="M498.592,389.771c-66.959,0-105.815-32.519-105.815-32.519s33.719,53.379,105.815,53.379
			c72.088,0,105.806-53.379,105.806-53.379S565.546,389.771,498.592,389.771z"/>
		<path fill="#FF9B1E" d="M498.592,433.08c-9.731,0-17.631-7.898-17.631-17.634c0-9.731,7.9-17.628,17.631-17.628
			c9.741,0,17.632,7.896,17.632,17.628C516.224,425.181,508.333,433.08,498.592,433.08z"/>
		<path fill="#FFE11E" d="M498.592,425.639c-8.289,0-15.017-6.715-15.017-15.008c0-8.292,6.728-15.009,15.017-15.009
			c8.288,0,15.009,6.717,15.009,15.009C513.601,418.924,506.88,425.639,498.592,425.639z"/>
	</g>
	<path fill="#8B3A17" d="M683.493,487.343c-3.085-3.539-6.652-6.636-10.641-9.241c1.722-11.984,1.317-23.659-1.206-34.786
		c29.17-66.937,10.375-119.563-19.709-140.286c-10.418-7.173-22.25-10.629-34.147-9.922c-0.949-2.855-2.012-5.563-3.178-8.101
		c9.865-19.513,7.207-47.684-6.151-59.723c-6.382-5.752-16.174-8.92-27.571-8.92c-13.858,0-27.525,4.507-36.638,11.931
		c-14.551-4.571-29.892-6.898-45.669-6.923c-15.754,0.025-31.094,2.353-45.65,6.923c-9.113-7.423-22.778-11.931-36.633-11.931
		c-11.396,0-21.186,3.168-27.565,8.919c-13.359,12.033-16.019,40.203-6.154,59.722c-6.547,14.195-11.018,35.788-4.903,56.008
		c-27.251,12.208-48.703,29.377-62.253,49.883c-12.764,19.315-17.853,40.482-14.332,59.602c2.39,12.999,8.474,23.83,17.757,31.753
		c-1.86,1.589-3.583,3.289-5.154,5.089c-15.327,17.551-18.126,40.804-7.679,63.797c6.424,14.138,17.434,27.208,31.003,36.801
		c14.095,9.965,30.07,15.453,44.984,15.453c11.292,0,21.728-2.986,31.074-8.883c26.073,12.992,55.559,19.862,85.508,19.896h0.007
		h0.006c29.955-0.033,59.442-6.903,85.515-19.896c9.344,5.896,19.78,8.882,31.074,8.883c0.003,0,0.005,0,0.008,0
		c14.912,0,30.885-5.485,44.977-15.447c13.568-9.592,24.578-22.659,31.002-36.797C701.622,528.149,698.821,504.893,683.493,487.343z
		 M586.934,568.636c-26.855,16.483-57.717,24.43-88.342,24.463c-30.625-0.033-61.478-7.979-88.344-24.463
		c-31.008,41.685-117.76-24.619-80.502-67.283c1.421-1.632,3.034-3.075,4.778-4.362c4.066-3.014,8.918-5.104,14.333-6.102
		c2.492-0.47,5.103-0.708,7.799-0.708c13.309,0,27.482,5.708,38.891,15.675c0.082,0.074,0.155,0.159,0.242,0.241
		c-1.647-9.297-6.676-16.776-13.285-22.114c8.427-5.346,14.047-13.862,15.543-24.545c3.885-27.664-17.39-46.985-39.545-36.167
		c9.939,2.859,17.053,9.366,20.98,16.829c-4.932,1.719-11.571,3.022-19.44,2.012c8.362,7.531,17.016,8.356,22.682,7.794
		c0.469,3.26,0.321,6.474-0.434,9.462c-5.474,0.798-13.741,0.863-22.848-3.066c5.238,8.395,11.871,11.625,17.031,12.812
		c-3.884,3.451-9.534,5.618-17.12,5.64c-0.036,0-0.067,0-0.095,0c-20.059,0-33.968-10.506-37.215-28.117
		c-5.202-28.266,17.597-67.447,70.933-88.901c9.015,11.023,23.524,19.517,45.502,22.667c-43.054-19.864-53.709-65.347-29.928-97.827
		c-11.901-4.327-13.86-33.99-5.555-41.471c8.757-7.896,43.112-1.688,40.855,13.458c17.032-8.049,35.931-11.858,54.743-11.886
		c18.819,0.028,37.712,3.837,54.743,11.886c-2.249-15.146,32.097-21.354,40.862-13.458c8.3,7.481,6.349,37.144-5.563,41.471
		c4.941,6.75,8.36,14.061,10.33,21.579c-4.932,2.477-9.699,5.818-14.207,9.977c-15.585-9.274-37.198-2.614-34.567-0.352
		c3.123,2.701,15.756-1.864,33.746,1.125c-0.406,0.393-0.833,0.745-1.226,1.147c-0.035,0.03-0.053,0.056-0.086,0.082
		c-2.505,2.521-4.621,5.185-6.409,7.922c-12.907-6.754-28.458-4.992-26.707-2.671c2.097,2.766,11.844,1.935,24.984,5.583
		c-6.86,12.616-6.172,26.705,2.569,38.301c0.562,0.734,1.161,1.377,1.74,2.056c-5.652,5.04-12.313,9.487-20.09,13.078
		c10.086-1.446,18.557-4.042,25.691-7.466c16.806,13.836,39.262,10.131,46.205-10.055c-9.051,4.999-18.689,5.431-26.744,2.932
		c2.272-4.707,6.047-10.307,12.326-15.174c-11.232,0.583-17.939,6.13-21.553,10.53c-2.63-1.974-4.807-4.349-6.392-7.002
		c3.315-4.428,9.124-10.314,18.335-13.983c-9.642-2.23-16.612,0.178-21.104,2.98c0.316-5.183,2.76-10.719,8.119-16.093
		c0.021-0.02,0.051-0.041,0.064-0.06c14.19-14.184,31.445-16.598,46.193-6.437c21.867,15.061,33.394,53.625,17.273,101.107
		c-11.06-19.674-26.511-29.568-26.511-29.568s27.724,46.482,21,83.621c-3.554-0.691-7.264-1.055-11.089-1.055
		c-16.993,0-35.613,11.678-39.133,31.416c0.086-0.082,0.159-0.167,0.246-0.241c11.404-9.967,25.586-15.675,38.887-15.675
		c2.706,0,5.314,0.238,7.803,0.708c5.411,0.998,10.26,3.087,14.327,6.102c1.754,1.287,3.36,2.73,4.785,4.362
		C704.703,544.017,617.943,610.32,586.934,568.636z M447.675,321.386c-2.616,3.47-17.23,1.263-35.486,9.325
		C425.146,316.442,449.858,318.495,447.675,321.386z M520.577,284.164c2.543-6.9,9.688-10.167,9.688-10.167
		s13.801,3.025,21.445,17.068C553.476,294.304,543.698,284.286,520.577,284.164z M445.475,291.065
		c7.651-14.043,21.451-17.068,21.451-17.068s7.145,3.267,9.688,10.167C453.494,284.286,443.708,294.304,445.475,291.065z
		 M448.327,306.568c-3.951,1.818-15.8-7.028-35.682-8.535C430.797,291.562,451.618,305.048,448.327,306.568z M548.857,306.568
		c-3.282-1.52,17.529-15.006,35.692-8.535C564.657,299.54,552.809,308.386,548.857,306.568z M498.592,325.457
		c-59.344,16.459-50.31-21.147-23.75-27.277c-40.145,27.591,29.358,28.732,18.643,9.219c-4.506-1.481-9.386-4.668-9.386-9.461
		c0-3.412,7.246-5.115,14.494-5.115c7.249,0,14.497,1.703,14.497,5.115c0,4.792-4.883,7.98-9.382,9.461
		c-10.713,19.513,58.774,18.372,18.644-9.219C548.903,304.31,557.945,341.916,498.592,325.457z M410.35,315.436
		c15.653-11.223,39.392-4.024,36.649-1.654C443.708,316.625,429.882,311.39,410.35,315.436z"/>
	<path fill="#C66402" d="M387.75,529.478c4.843,8.223-0.836,19.315-12.026,25.914c-11.191,6.594-23.641,6.201-28.492-2.024
		c-4.852-8.235,3.539-22.158,11.476-26.848C366.637,521.847,382.892,521.242,387.75,529.478z M609.441,529.478
		c-4.846,8.223,0.828,19.315,12.027,25.914c11.183,6.594,23.643,6.201,28.491-2.024c4.846-8.235-3.545-22.158-11.483-26.848
		C630.558,521.847,614.294,521.242,609.441,529.478z M343.494,508.193c-2.96,2.021-3.306,6.676-0.763,10.397
		c2.543,3.728,6.998,5.104,9.967,3.083c2.969-2.028,3.306-6.685,0.769-10.407C350.925,507.545,346.462,506.162,343.494,508.193z
		 M643.725,511.267c-2.535,3.723-2.207,8.379,0.764,10.407c2.968,2.021,7.428,0.645,9.972-3.083
		c2.543-3.722,2.189-8.377-0.77-10.397C650.725,506.162,646.268,507.545,643.725,511.267z M329.144,524.805
		c-2.271,2.777-1.273,7.346,2.222,10.195c3.496,2.846,8.164,2.895,10.436,0.113c2.265-2.781,1.268-7.341-2.219-10.188
		C336.083,522.08,331.408,522.027,329.144,524.805z M657.612,524.926c-3.49,2.847-4.496,7.406-2.22,10.188
		c2.263,2.781,6.939,2.732,10.429-0.113c3.494-2.85,4.49-7.418,2.22-10.195C665.778,522.027,661.105,522.08,657.612,524.926z
		 M360.274,510.796c1.38,4.289,5.263,6.888,8.678,5.787c3.422-1.102,5.072-5.468,3.701-9.759c-1.384-4.297-5.268-6.884-8.69-5.783
		C360.546,502.143,358.897,506.508,360.274,510.796z M633.23,501.041c-3.425-1.101-7.319,1.486-8.692,5.783
		c-1.378,4.291,0.275,8.657,3.696,9.759c3.42,1.101,7.307-1.498,8.675-5.787C638.296,506.508,636.646,502.143,633.23,501.041z
		 M415.275,275.422c0,0,6.17-10.653,20.704-17.673c-7.873-13.071-22.756-10.893-26.025-8.835
		C406.686,250.969,405.959,268.642,415.275,275.422z M587.236,248.914c-3.269-2.058-18.152-4.236-26.022,8.835
		c14.531,7.02,20.694,17.673,20.694,17.673C591.23,268.642,590.505,250.969,587.236,248.914z"/>
</g>
<path fill="#8B3A17" d="M170.596,776.468c-21.012,0-37.019-5.843-48.022-17.531c-11.003-11.685-16.504-28.282-16.504-49.793
	c0-10.691,1.678-20.234,5.035-28.627s7.955-15.479,13.801-21.26c5.842-5.781,12.804-10.164,20.887-13.148
	c8.08-2.983,16.845-4.476,26.295-4.476c5.469,0,10.443,0.405,14.919,1.212c4.476,0.811,8.392,1.743,11.749,2.798
	c3.357,1.058,6.154,2.145,8.392,3.264s3.853,1.99,4.849,2.61l-8.392,23.499c-3.98-2.113-8.61-3.917-13.894-5.409
	c-5.286-1.491-11.283-2.237-17.997-2.237c-4.476,0-8.858,0.746-13.148,2.237c-4.289,1.492-8.083,3.888-11.376,7.181
	c-3.295,3.295-5.938,7.553-7.926,12.774c-1.99,5.222-2.984,11.563-2.984,19.022c0,5.968,0.653,11.533,1.958,16.691
	c1.306,5.16,3.418,9.604,6.341,13.334c2.92,3.729,6.743,6.685,11.469,8.858c4.724,2.177,10.444,3.264,17.157,3.264
	c4.226,0,8.02-0.248,11.376-0.746c3.357-0.495,6.341-1.087,8.952-1.771c2.611-0.682,4.91-1.46,6.9-2.331
	c1.987-0.869,3.791-1.679,5.409-2.425l8.019,23.312c-4.103,2.488-9.884,4.727-17.344,6.714
	C189.059,775.471,180.416,776.468,170.596,776.468z M312.05,724.622c0,7.711-1.119,14.766-3.357,21.167
	c-2.238,6.405-5.472,11.875-9.698,16.411c-4.228,4.54-9.295,8.052-15.199,10.537c-5.906,2.485-12.527,3.73-19.861,3.73
	c-7.212,0-13.771-1.245-19.675-3.73c-5.907-2.485-10.974-5.997-15.199-10.537c-4.229-4.536-7.524-10.006-9.884-16.411
	c-2.363-6.401-3.543-13.456-3.543-21.167c0-7.707,1.212-14.732,3.637-21.073s5.781-11.749,10.071-16.226
	c4.289-4.476,9.386-7.955,15.292-10.443c5.903-2.485,12.337-3.729,19.302-3.729c7.087,0,13.582,1.244,19.489,3.729
	c5.903,2.488,10.971,5.968,15.199,10.443c4.226,4.477,7.521,9.885,9.884,16.226C310.867,709.89,312.05,716.915,312.05,724.622z
	 M283.703,724.622c0-8.578-1.71-15.321-5.128-20.234c-3.421-4.91-8.299-7.366-14.64-7.366s-11.253,2.456-14.733,7.366
	c-3.482,4.913-5.222,11.656-5.222,20.234c0,8.579,1.739,15.386,5.222,20.421c3.479,5.035,8.392,7.554,14.733,7.554
	s11.219-2.519,14.64-7.554C281.992,740.008,283.703,733.201,283.703,724.622z M379.13,721.825c0-8.952-1.151-15.293-3.45-19.022
	c-2.302-3.73-6.248-5.595-11.842-5.595c-1.743,0-3.543,0.093-5.408,0.279c-1.865,0.187-3.669,0.405-5.409,0.653v75.716h-27.787
	v-94.738c2.36-0.621,5.128-1.273,8.299-1.958c3.17-0.683,6.527-1.306,10.07-1.865c3.543-0.56,7.18-0.994,10.91-1.306
	c3.73-0.309,7.396-0.466,11.003-0.466c7.087,0,12.836,0.903,17.25,2.704c4.412,1.804,8.048,3.948,10.91,6.434
	c3.978-2.858,8.546-5.097,13.707-6.714c5.158-1.614,9.914-2.424,14.267-2.424c7.833,0,14.267,1.09,19.302,3.264
	c5.035,2.177,9.045,5.254,12.029,9.231c2.984,3.98,5.035,8.704,6.154,14.173c1.119,5.473,1.678,11.563,1.678,18.276v55.389h-27.787
	v-52.031c0-8.952-1.151-15.293-3.45-19.022c-2.302-3.73-6.248-5.595-11.842-5.595c-1.492,0-3.576,0.373-6.248,1.119
	c-2.675,0.745-4.881,1.678-6.621,2.797c0.868,2.861,1.428,5.875,1.678,9.045c0.248,3.171,0.373,6.56,0.373,10.164v53.523H379.13
	V721.825z M473.234,725.555c0-8.701,1.334-16.318,4.01-22.846c2.672-6.527,6.183-11.964,10.537-16.317
	c4.351-4.351,9.354-7.646,15.013-9.885c5.656-2.237,11.47-3.356,17.438-3.356c13.923,0,24.926,4.26,33.009,12.774
	c8.081,8.518,12.122,21.045,12.122,37.578c0,1.617-0.063,3.39-0.187,5.315c-0.125,1.929-0.25,3.637-0.373,5.129h-63.034
	c0.62,5.72,3.293,10.257,8.019,13.613c4.724,3.357,11.064,5.036,19.022,5.036c5.097,0,10.1-0.467,15.013-1.399
	c4.91-0.933,8.92-2.08,12.029-3.45l3.729,22.566c-1.492,0.745-3.482,1.491-5.968,2.237c-2.488,0.746-5.254,1.398-8.299,1.958
	c-3.048,0.56-6.312,1.026-9.791,1.399c-3.482,0.373-6.964,0.56-10.443,0.56c-8.829,0-16.505-1.306-23.032-3.917
	c-6.527-2.61-11.936-6.184-16.225-10.723c-4.29-4.537-7.46-9.914-9.511-16.132C474.26,739.48,473.234,732.767,473.234,725.555z
	 M538.508,714.925c-0.126-2.36-0.53-4.662-1.213-6.9c-0.685-2.238-1.742-4.226-3.17-5.968c-1.431-1.739-3.234-3.17-5.408-4.289
	c-2.177-1.119-4.881-1.679-8.112-1.679c-3.109,0-5.781,0.53-8.02,1.585c-2.238,1.058-4.103,2.457-5.595,4.196
	c-1.492,1.742-2.643,3.762-3.45,6.062c-0.81,2.302-1.398,4.633-1.771,6.993H538.508z M607.883,759.123
	c0,5.596-1.771,9.855-5.314,12.775c-3.544,2.92-7.554,4.383-12.029,4.383s-8.485-1.463-12.028-4.383
	c-3.544-2.92-5.315-7.18-5.315-12.775c0-5.595,1.771-9.852,5.315-12.774c3.543-2.92,7.553-4.383,12.028-4.383
	s8.485,1.463,12.029,4.383C606.111,749.271,607.883,753.528,607.883,759.123z M678.096,776.468c-21.013,0-37.02-5.843-48.022-17.531
	c-11.003-11.685-16.505-28.282-16.505-49.793c0-10.691,1.679-20.234,5.036-28.627c3.356-8.393,7.955-15.479,13.8-21.26
	c5.843-5.781,12.805-10.164,20.888-13.148c8.08-2.983,16.846-4.476,26.295-4.476c5.47,0,10.444,0.405,14.92,1.212
	c4.476,0.811,8.393,1.743,11.749,2.798c3.356,1.058,6.154,2.145,8.393,3.264c2.237,1.119,3.852,1.99,4.849,2.61l-8.393,23.499
	c-3.98-2.113-8.61-3.917-13.894-5.409c-5.286-1.491-11.283-2.237-17.997-2.237c-4.476,0-8.858,0.746-13.147,2.237
	c-4.289,1.492-8.083,3.888-11.376,7.181c-3.296,3.295-5.938,7.553-7.926,12.774c-1.99,5.222-2.984,11.563-2.984,19.022
	c0,5.968,0.653,11.533,1.959,16.691c1.305,5.16,3.418,9.604,6.341,13.334c2.919,3.729,6.742,6.685,11.469,8.858
	c4.724,2.177,10.443,3.264,17.157,3.264c4.226,0,8.02-0.248,11.376-0.746c3.357-0.495,6.341-1.087,8.952-1.771
	c2.61-0.682,4.91-1.46,6.9-2.331c1.987-0.869,3.791-1.679,5.408-2.425l8.019,23.312c-4.103,2.488-9.884,4.727-17.344,6.714
	C696.559,775.471,687.915,776.468,678.096,776.468z M766.939,673.15c8.206,0,15.042,0.933,20.515,2.797
	c5.469,1.865,9.852,4.54,13.147,8.02c3.293,3.482,5.624,7.71,6.993,12.682c1.367,4.974,2.052,10.508,2.052,16.598v57.813
	c-3.98,0.872-9.512,1.897-16.598,3.077c-7.087,1.181-15.666,1.772-25.736,1.772c-6.341,0-12.093-0.56-17.251-1.679
	c-5.16-1.119-9.604-2.952-13.334-5.502c-3.729-2.547-6.592-5.874-8.579-9.977c-1.99-4.104-2.983-9.139-2.983-15.106
	c0-5.717,1.148-10.566,3.45-14.547c2.299-3.978,5.376-7.147,9.231-9.511c3.852-2.36,8.267-4.07,13.241-5.129
	c4.971-1.055,10.132-1.585,15.479-1.585c3.604,0,6.807,0.157,9.604,0.467c2.797,0.312,5.064,0.717,6.807,1.212v-2.611
	c0-4.724-1.431-8.515-4.289-11.376c-2.861-2.858-7.833-4.289-14.92-4.289c-4.726,0-9.389,0.344-13.986,1.025
	c-4.602,0.686-8.579,1.649-11.936,2.891l-3.544-22.379c1.614-0.495,3.637-1.025,6.062-1.585c2.424-0.56,5.064-1.055,7.926-1.492
	c2.858-0.435,5.875-0.807,9.045-1.119C760.506,673.308,763.705,673.15,766.939,673.15z M769.178,754.461
	c2.732,0,5.344-0.061,7.832-0.187c2.486-0.122,4.476-0.309,5.968-0.56v-21.073c-1.119-0.248-2.797-0.495-5.035-0.746
	c-2.238-0.248-4.289-0.373-6.154-0.373c-2.61,0-5.067,0.157-7.366,0.466c-2.302,0.313-4.321,0.903-6.062,1.772
	c-1.742,0.871-3.108,2.051-4.103,3.543c-0.996,1.492-1.492,3.357-1.492,5.595c0,4.354,1.46,7.366,4.383,9.045
	C760.068,753.622,764.078,754.461,769.178,754.461z M826.038,651.33l27.787-4.476v28.906h33.383v23.126h-33.383v34.501
	c0,5.845,1.026,10.508,3.077,13.986c2.052,3.482,6.184,5.223,12.402,5.223c2.983,0,6.061-0.28,9.231-0.84
	c3.17-0.56,6.061-1.334,8.672-2.331l3.916,21.633c-3.356,1.37-7.087,2.55-11.189,3.544c-4.103,0.993-9.139,1.492-15.106,1.492
	c-7.585,0-13.864-1.026-18.835-3.077c-4.975-2.052-8.952-4.91-11.936-8.579c-2.984-3.666-5.067-8.112-6.248-13.334
	c-1.183-5.222-1.771-11.003-1.771-17.344V651.33z"/>
</svg>
