<?xml version="1.0" encoding="utf-8"?>
<!-- Generator: Adobe Illustrator 16.0.2, SVG Export Plug-In . SVG Version: 6.00 Build 0)  -->
<!DOCTYPE svg PUBLIC "-//W3C//DTD SVG 1.1//EN" "http://www.w3.org/Graphics/SVG/1.1/DTD/svg11.dtd">
<svg version="1.1" id="Слой_1" xmlns="http://www.w3.org/2000/svg" xmlns:xlink="http://www.w3.org/1999/xlink" x="0px" y="0px"
	 width="1000px" height="1000px" viewBox="0 0 1000 1000" enable-background="new 0 0 1000 1000" xml:space="preserve">
<g>
	<ellipse fill="#8B3A17" cx="216.517" cy="587.554" rx="120.62" ry="10.521"/>
	<path fill="#FFC300" d="M305.665,537.03c-1.771-2.027-3.878-3.696-6.236-4.987c1.308-7.186,0.894-13.489-0.467-18.911
		c14.3-31.984,5.714-56.958-8.345-66.643c-5.434-3.741-11.427-5.084-17.294-4.157c-0.709-2.589-1.625-5.029-2.742-7.185
		c4.977-8.333,4.175-21.965-1.728-27.285c-6.673-6.013-22.164-4.271-29.111,2.596c-7.119-2.419-14.972-3.777-23.227-3.791
		c-8.252,0.014-16.105,1.372-23.228,3.791c-6.944-6.867-22.434-8.609-29.105-2.596c-5.906,5.319-6.703,18.951-1.728,27.285
		c-4.098,7.923-6.028,19.519-2.057,29.31c-30.719,12.744-41.603,35.643-38.594,51.974c1.318,7.163,5.179,12.748,10.82,16.201
		c-1.958,1.201-3.737,2.663-5.257,4.398c-22.088,25.295,20.166,66.733,46.718,47.715c12.458,6.51,26.956,10.264,42.431,10.28
		c15.475-0.017,29.977-3.771,42.433-10.28C285.503,603.764,327.755,562.325,305.665,537.03z"/>
	<path fill="#FFFFFF" d="M216.516,587.375c-23.032,0-41.707-19.646-41.707-43.884c0-24.232,18.675-43.879,41.707-43.879
		c23.031,0,41.707,19.646,41.707,43.879C258.223,567.729,239.547,587.375,216.516,587.375z"/>
	<path fill="#FFFFFF" d="M216.516,466.24c-11.148,0-20.188-6.048-20.188-13.512c0-7.458,9.04-13.509,20.188-13.509
		c11.146,0,20.187,6.052,20.187,13.509C236.702,460.192,227.662,466.24,216.516,466.24z"/>
	<g>
		<path fill="#FF0032" d="M216.516,486.962c-33.068,0-52.257-16.058-52.257-16.058s16.652,26.361,52.257,26.361
			c35.601,0,52.25-26.361,52.25-26.361S249.581,486.962,216.516,486.962z"/>
		<path fill="#FF9B1E" d="M216.516,508.348c-4.806,0-8.708-3.896-8.708-8.705c0-4.808,3.902-8.705,8.708-8.705
			c4.812,0,8.707,3.897,8.707,8.705C225.222,504.451,221.327,508.348,216.516,508.348z"/>
		<path fill="#FFE11E" d="M216.516,504.677c-4.094,0-7.416-3.318-7.416-7.411c0-4.095,3.322-7.415,7.416-7.415
			c4.093,0,7.412,3.32,7.412,7.415C223.928,501.358,220.608,504.677,216.516,504.677z"/>
	</g>
	<path fill="#8B3A17" d="M307.828,535.149c-1.524-1.749-3.284-3.28-5.256-4.566c0.851-5.918,0.651-11.682-0.594-17.176
		c14.405-33.059,5.123-59.047-9.735-69.281c-5.145-3.543-10.987-5.25-16.864-4.9c-0.468-1.41-0.991-2.747-1.568-4.001
		c4.872-9.635,3.56-23.547-3.039-29.492c-3.152-2.842-7.986-4.407-13.614-4.407c-6.845,0-13.595,2.227-18.093,5.892
		c-7.186-2.258-14.762-3.406-22.555-3.419c-7.78,0.013-15.356,1.161-22.542,3.419c-4.501-3.666-11.25-5.892-18.092-5.892
		c-5.628,0-10.462,1.564-13.613,4.405c-6.597,5.941-7.912,19.853-3.041,29.492c-3.231,7.01-5.44,17.675-2.42,27.661
		c-13.457,6.028-24.052,14.508-30.742,24.637c-6.304,9.534-8.818,19.988-7.079,29.431c1.181,6.42,4.186,11.768,8.77,15.681
		c-0.918,0.788-1.77,1.625-2.546,2.515c-7.569,8.667-8.951,20.147-3.792,31.505c3.172,6.981,8.61,13.437,15.312,18.174
		c6.959,4.921,14.849,7.631,22.215,7.631c5.577,0,10.729-1.474,15.345-4.385c12.876,6.414,27.438,9.81,42.228,9.823h0.004h0.003
		c14.793-0.014,29.355-3.409,42.23-9.823c4.614,2.911,9.77,4.385,15.346,4.385c0.001,0,0.002,0,0.004,0
		c7.364,0,15.251-2.707,22.21-7.629c6.702-4.736,12.14-11.188,15.311-18.17C316.781,555.303,315.397,543.813,307.828,535.149z
		 M260.142,575.293c-13.263,8.141-28.501,12.068-43.626,12.082c-15.125-0.014-30.362-3.941-43.629-12.082
		c-15.312,20.586-58.155-12.155-39.755-33.229c0.701-0.805,1.497-1.518,2.359-2.153c2.008-1.487,4.405-2.521,7.079-3.013
		c1.229-0.229,2.52-0.35,3.85-0.35c6.573,0,13.573,2.816,19.207,7.74c0.039,0.039,0.077,0.08,0.12,0.119
		c-0.814-4.588-3.298-8.284-6.562-10.92c4.163-2.641,6.938-6.846,7.675-12.12c1.919-13.662-8.586-23.204-19.528-17.861
		c4.907,1.412,8.421,4.624,10.36,8.309c-2.436,0.854-5.715,1.495-9.601,0.997c4.13,3.715,8.404,4.128,11.202,3.85
		c0.231,1.608,0.159,3.194-0.215,4.671c-2.703,0.391-6.787,0.43-11.283-1.515c2.586,4.145,5.862,5.742,8.41,6.328
		c-1.918,1.705-4.708,2.776-8.454,2.784c-0.018,0-0.033,0-0.047,0c-9.907,0-16.774-5.188-18.38-13.885
		c-2.568-13.957,8.691-33.311,35.03-43.903c4.453,5.443,11.617,9.639,22.472,11.191c-21.262-9.808-26.523-32.269-14.78-48.309
		c-5.878-2.137-6.845-16.786-2.743-20.48c4.325-3.899,21.289-0.833,20.175,6.646c8.412-3.974,17.745-5.856,27.035-5.87
		c9.293,0.014,18.624,1.896,27.034,5.87c-1.111-7.479,15.852-10.545,20.18-6.646c4.099,3.694,3.135,18.343-2.746,20.48
		c2.439,3.333,4.127,6.944,5.102,10.658c-2.437,1.223-4.79,2.874-7.017,4.925c-7.697-4.58-18.37-1.291-17.072-0.172
		c1.543,1.334,7.781-0.921,16.667,0.555c-0.201,0.194-0.412,0.368-0.607,0.566c-0.017,0.015-0.026,0.029-0.042,0.041
		c-1.237,1.245-2.28,2.56-3.163,3.912c-6.375-3.335-14.055-2.465-13.191-1.319c1.037,1.366,5.85,0.954,12.339,2.758
		c-3.387,6.229-3.047,13.186,1.27,18.914c0.277,0.364,0.573,0.68,0.859,1.015c-2.791,2.489-6.081,4.686-9.921,6.456
		c4.98-0.711,9.164-1.994,12.688-3.685c8.3,6.831,19.389,5.004,22.817-4.967c-4.47,2.469-9.229,2.683-13.206,1.45
		c1.122-2.324,2.985-5.092,6.086-7.495c-5.546,0.288-8.858,3.027-10.644,5.2c-1.298-0.974-2.373-2.147-3.156-3.458
		c1.639-2.187,4.505-5.094,9.055-6.906c-4.762-1.1-8.203,0.088-10.422,1.472c0.156-2.559,1.363-5.293,4.01-7.946
		c0.011-0.011,0.026-0.021,0.032-0.03c7.009-7.005,15.529-8.196,22.813-3.18c10.799,7.438,16.492,26.483,8.53,49.932
		c-5.461-9.716-13.092-14.604-13.092-14.604s13.691,22.957,10.371,41.298c-1.754-0.339-3.587-0.521-5.476-0.521
		c-8.391,0-17.587,5.764-19.324,15.513c0.041-0.039,0.078-0.08,0.121-0.119c5.632-4.924,12.635-7.74,19.203-7.74
		c1.337,0,2.625,0.121,3.854,0.35c2.671,0.492,5.066,1.525,7.075,3.013c0.866,0.636,1.66,1.349,2.363,2.153
		C318.303,563.138,275.456,595.879,260.142,575.293z M191.371,453.191c-1.293,1.714-8.51,0.624-17.525,4.606
		C180.245,450.748,192.449,451.763,191.371,453.191z M227.373,434.808c1.256-3.407,4.784-5.02,4.784-5.02s6.816,1.494,10.59,8.428
		C243.62,439.816,238.791,434.869,227.373,434.808z M190.283,438.216c3.78-6.935,10.593-8.428,10.593-8.428s3.531,1.613,4.785,5.02
		C194.245,434.869,189.412,439.816,190.283,438.216z M191.693,445.872c-1.951,0.898-7.805-3.47-17.623-4.215
		C183.035,438.463,193.316,445.122,191.693,445.872z M241.34,445.872c-1.622-0.75,8.655-7.409,17.625-4.215
		C249.142,442.402,243.291,446.77,241.34,445.872z M216.516,455.201c-29.307,8.128-24.846-10.443-11.729-13.471
		c-19.826,13.625,14.499,14.189,9.205,4.554c-2.224-0.733-4.635-2.307-4.635-4.674c0-1.686,3.579-2.526,7.159-2.526
		c3.579,0,7.159,0.841,7.159,2.526c0,2.367-2.413,3.941-4.634,4.674c-5.29,9.636,29.025,9.071,9.208-4.554
		C241.362,444.758,245.827,463.329,216.516,455.201z M172.939,450.252c7.728-5.544,19.452-1.987,18.097-0.817
		C189.412,450.839,182.583,448.254,172.939,450.252z"/>
	<path fill="#C66402" d="M161.776,555.955c2.392,4.06-0.412,9.54-5.939,12.798s-11.674,3.063-14.07-1
		c-2.396-4.067,1.748-10.941,5.666-13.26C151.35,552.186,159.377,551.891,161.776,555.955z M271.257,555.955
		c-2.393,4.06,0.41,9.54,5.94,12.798c5.523,3.258,11.675,3.063,14.07-1c2.395-4.067-1.75-10.941-5.67-13.26
		C281.685,552.186,273.654,551.891,271.257,555.955z M139.922,545.446c-1.464,0.994-1.634,3.294-0.377,5.134
		c1.256,1.842,3.457,2.52,4.921,1.522c1.467-1.003,1.632-3.302,0.38-5.142C143.59,545.127,141.387,544.441,139.922,545.446z
		 M288.187,546.961c-1.25,1.84-1.088,4.139,0.378,5.142c1.465,0.997,3.668,0.319,4.924-1.522c1.256-1.84,1.083-4.14-0.38-5.134
		C291.645,544.441,289.444,545.127,288.187,546.961z M132.833,553.647c-1.119,1.369-0.628,3.627,1.099,5.037
		c1.725,1.401,4.03,1.427,5.153,0.052c1.118-1.371,0.626-3.621-1.096-5.028C136.261,552.301,133.953,552.276,132.833,553.647z
		 M295.047,553.708c-1.725,1.407-2.221,3.657-1.097,5.028c1.118,1.375,3.427,1.35,5.15-0.052c1.727-1.41,2.22-3.668,1.097-5.037
		C299.079,552.276,296.772,552.301,295.047,553.708z M148.208,546.729c0.68,2.118,2.598,3.398,4.284,2.858
		c1.691-0.545,2.505-2.701,1.829-4.819c-0.683-2.123-2.601-3.401-4.292-2.855C148.342,542.458,147.527,544.611,148.208,546.729z
		 M283.005,541.913c-1.691-0.546-3.615,0.732-4.292,2.855c-0.68,2.118,0.136,4.274,1.826,4.819c1.688,0.54,3.608-0.74,4.284-2.858
		C285.507,544.611,284.692,542.458,283.005,541.913z M175.371,430.491c0,0,3.046-5.261,10.224-8.727
		c-3.889-6.455-11.237-5.38-12.853-4.364C171.128,418.416,170.769,427.144,175.371,430.491z M260.292,417.4
		c-1.614-1.016-8.965-2.091-12.851,4.364c7.175,3.466,10.218,8.727,10.218,8.727C262.264,427.144,261.906,418.416,260.292,417.4z"/>
</g>
<path fill="#8B3A17" d="M399.527,559.549c-15.139,0-26.669-4.208-34.597-12.629c-7.926-8.419-11.89-20.374-11.89-35.87
	c0-7.703,1.21-14.577,3.628-20.625c2.418-6.047,5.731-11.151,9.942-15.317c4.208-4.164,9.224-7.323,15.047-9.474
	c5.82-2.148,12.137-3.222,18.943-3.222c3.94,0,7.523,0.292,10.749,0.873c3.225,0.584,6.044,1.256,8.465,2.016
	c2.418,0.76,4.434,1.545,6.045,2.349c1.614,0.807,2.776,1.435,3.492,1.881l-6.045,16.931c-2.867-1.523-6.205-2.823-10.008-3.899
	c-3.809-1.071-8.13-1.611-12.966-1.611c-3.226,0-6.382,0.54-9.472,1.611c-3.09,1.077-5.825,2.803-8.196,5.174
	c-2.375,2.374-4.278,5.442-5.71,9.204c-1.434,3.762-2.149,8.33-2.149,13.703c0,4.302,0.47,8.309,1.41,12.026
	c0.941,3.718,2.462,6.918,4.567,9.606c2.105,2.685,4.859,4.813,8.265,6.381c3.402,1.566,7.523,2.352,12.359,2.352
	c3.046,0,5.778-0.179,8.196-0.537s4.566-0.785,6.45-1.277c1.881-0.493,3.536-1.05,4.971-1.678c1.43-0.628,2.732-1.212,3.897-1.749
	l5.775,16.797c-2.955,1.79-7.119,3.403-12.492,4.836C412.826,558.83,406.602,559.549,399.527,559.549z M501.434,522.2
	c0,5.552-0.807,10.636-2.418,15.249c-1.61,4.615-3.943,8.556-6.986,11.822c-3.046,3.271-6.697,5.8-10.949,7.59
	c-4.255,1.79-9.025,2.688-14.31,2.688c-5.194,0-9.919-0.897-14.174-2.688s-7.907-4.318-10.95-7.59
	c-3.046-3.267-5.42-7.207-7.122-11.822c-1.702-4.613-2.55-9.697-2.55-15.249c0-5.555,0.873-10.616,2.619-15.183
	c1.746-4.568,4.164-8.463,7.256-11.69c3.09-3.222,6.758-5.73,11.016-7.523c4.252-1.79,8.887-2.688,13.905-2.688
	c5.106,0,9.785,0.898,14.04,2.688c4.252,1.793,7.904,4.302,10.95,7.523c3.045,3.228,5.419,7.122,7.121,11.69
	C500.58,511.584,501.434,516.646,501.434,522.2z M481.011,522.2c0-6.18-1.231-11.038-3.693-14.579
	c-2.465-3.536-5.979-5.305-10.547-5.305s-8.107,1.769-10.614,5.305c-2.509,3.541-3.762,8.399-3.762,14.579
	s1.253,11.085,3.762,14.712c2.506,3.627,6.045,5.441,10.614,5.441s8.083-1.814,10.547-5.441
	C479.779,533.285,481.011,528.38,481.011,522.2z M549.76,520.185c0-6.45-0.828-11.016-2.486-13.706
	c-1.658-2.686-4.5-4.029-8.532-4.029c-1.253,0-2.55,0.068-3.894,0.203c-1.344,0.133-2.644,0.29-3.896,0.469v54.547h-20.019v-68.25
	c1.699-0.449,3.695-0.917,5.979-1.41c2.283-0.493,4.701-0.942,7.254-1.347c2.553-0.402,5.175-0.713,7.859-0.939
	c2.688-0.223,5.329-0.336,7.929-0.336c5.105,0,9.245,0.652,12.426,1.95c3.178,1.297,5.797,2.842,7.859,4.635
	c2.864-2.06,6.158-3.674,9.876-4.838c3.718-1.162,7.144-1.746,10.278-1.746c5.643,0,10.28,0.785,13.907,2.352
	c3.624,1.567,6.516,3.784,8.666,6.651c2.146,2.867,3.624,6.271,4.432,10.211c0.807,3.943,1.209,8.331,1.209,13.164v39.904h-20.019
	v-37.483c0-6.45-0.829-11.016-2.484-13.706c-1.657-2.686-4.502-4.029-8.531-4.029c-1.077,0-2.578,0.27-4.503,0.807
	c-1.928,0.537-3.514,1.209-4.77,2.016c0.628,2.061,1.029,4.233,1.209,6.516c0.179,2.283,0.27,4.727,0.27,7.323v38.558H549.76
	V520.185z M617.554,522.872c0-6.271,0.961-11.757,2.889-16.457c1.928-4.704,4.456-8.62,7.593-11.757
	c3.134-3.137,6.739-5.511,10.814-7.125c4.076-1.611,8.262-2.418,12.561-2.418c10.033,0,17.959,3.071,23.783,9.207
	c5.819,6.133,8.73,15.16,8.73,27.071c0,1.165-0.044,2.439-0.133,3.831c-0.091,1.388-0.182,2.618-0.267,3.692h-45.413
	c0.446,4.12,2.372,7.389,5.775,9.807c3.404,2.418,7.973,3.63,13.704,3.63c3.673,0,7.278-0.336,10.817-1.008
	c3.536-0.672,6.425-1.501,8.664-2.486l2.69,16.256c-1.077,0.54-2.512,1.074-4.302,1.614c-1.793,0.536-3.784,1.008-5.977,1.409
	c-2.197,0.402-4.547,0.738-7.056,1.009c-2.509,0.27-5.015,0.401-7.523,0.401c-6.358,0-11.892-0.938-16.593-2.819
	c-4.703-1.882-8.598-4.456-11.69-7.726c-3.09-3.271-5.372-7.144-6.852-11.621C618.295,532.904,617.554,528.066,617.554,522.872z
	 M664.58,515.214c-0.091-1.702-0.383-3.357-0.876-4.974c-0.493-1.611-1.253-3.043-2.283-4.297c-1.029-1.256-2.329-2.282-3.894-3.09
	c-1.57-0.807-3.52-1.209-5.844-1.209c-2.242,0-4.167,0.381-5.781,1.141c-1.61,0.763-2.955,1.771-4.031,3.023
	c-1.074,1.256-1.903,2.71-2.484,4.368c-0.584,1.657-1.008,3.335-1.275,5.037H664.58z M714.559,547.055
	c0,4.031-1.275,7.1-3.831,9.203c-2.55,2.104-5.438,3.159-8.664,3.159c-3.225,0-6.113-1.055-8.666-3.159
	c-2.554-2.104-3.828-5.172-3.828-9.203c0-4.029,1.274-7.097,3.828-9.201c2.553-2.106,5.441-3.158,8.666-3.158
	c3.226,0,6.114,1.052,8.664,3.158C713.283,539.958,714.559,543.025,714.559,547.055z M765.14,559.549
	c-15.136,0-26.669-4.208-34.598-12.629c-7.923-8.419-11.889-20.374-11.889-35.87c0-7.703,1.212-14.577,3.63-20.625
	c2.418-6.047,5.73-11.151,9.941-15.317c4.211-4.164,9.224-7.323,15.048-9.474c5.821-2.148,12.137-3.222,18.941-3.222
	c3.941,0,7.524,0.292,10.751,0.873c3.226,0.584,6.045,1.256,8.463,2.016s4.435,1.545,6.048,2.349
	c1.611,0.807,2.773,1.435,3.492,1.881l-6.048,16.931c-2.866-1.523-6.201-2.823-10.008-3.899c-3.809-1.071-8.129-1.611-12.965-1.611
	c-3.226,0-6.381,0.54-9.471,1.611c-3.091,1.077-5.825,2.803-8.196,5.174c-2.377,2.374-4.279,5.442-5.712,9.204
	c-1.432,3.762-2.147,8.33-2.147,13.703c0,4.302,0.468,8.309,1.409,12.026c0.942,3.718,2.463,6.918,4.569,9.606
	c2.104,2.685,4.858,4.813,8.262,6.381c3.404,1.566,7.523,2.352,12.359,2.352c3.046,0,5.778-0.179,8.196-0.537
	c2.421-0.358,4.568-0.785,6.449-1.277c1.881-0.493,3.536-1.05,4.974-1.678c1.43-0.628,2.729-1.212,3.895-1.749l5.774,16.797
	c-2.955,1.79-7.118,3.403-12.491,4.836C778.444,558.83,772.215,559.549,765.14,559.549z M829.145,485.116
	c5.912,0,10.839,0.675,14.78,2.016c3.94,1.344,7.097,3.271,9.474,5.777c2.371,2.512,4.051,5.558,5.037,9.138
	c0.982,3.583,1.479,7.568,1.479,11.955v41.653c-2.867,0.628-6.852,1.363-11.961,2.214c-5.103,0.852-11.285,1.278-18.536,1.278
	c-4.569,0-8.714-0.402-12.429-1.209c-3.718-0.808-6.921-2.126-9.608-3.963c-2.686-1.837-4.748-4.233-6.18-7.188
	c-1.433-2.957-2.151-6.584-2.151-10.883c0-4.117,0.829-7.612,2.487-10.482c1.657-2.863,3.872-5.146,6.65-6.852
	c2.773-1.699,5.957-2.933,9.54-3.692c3.58-0.761,7.301-1.144,11.15-1.144c2.597,0,4.905,0.113,6.921,0.336
	c2.013,0.227,3.646,0.518,4.904,0.876v-1.884c0-3.4-1.032-6.133-3.093-8.195c-2.06-2.061-5.643-3.09-10.748-3.09
	c-3.404,0-6.761,0.248-10.077,0.74c-3.313,0.493-6.18,1.188-8.598,2.082l-2.553-16.124c1.162-0.358,2.619-0.738,4.365-1.14
	c1.749-0.405,3.648-0.763,5.712-1.077c2.06-0.312,4.232-0.581,6.518-0.804C824.512,485.231,826.817,485.116,829.145,485.116z
	 M830.761,543.697c1.966,0,3.848-0.047,5.64-0.135c1.791-0.088,3.226-0.223,4.302-0.404v-15.18c-0.81-0.18-2.019-0.358-3.63-0.54
	c-1.61-0.179-3.09-0.268-4.434-0.268c-1.878,0-3.651,0.113-5.307,0.336c-1.658,0.224-3.112,0.65-4.367,1.275
	c-1.254,0.628-2.239,1.479-2.955,2.553c-0.717,1.077-1.074,2.421-1.074,4.032c0,3.134,1.052,5.307,3.156,6.516
	C824.198,543.092,827.084,543.697,830.761,543.697z M871.723,469.396l20.019-3.222V487h24.048v16.662h-24.048v24.854
	c0,4.211,0.738,7.568,2.217,10.077c1.479,2.509,4.456,3.762,8.934,3.762c2.151,0,4.365-0.204,6.651-0.605
	c2.285-0.402,4.367-0.961,6.246-1.68l2.822,15.587c-2.418,0.985-5.105,1.834-8.061,2.55c-2.958,0.719-6.585,1.077-10.884,1.077
	c-5.464,0-9.988-0.741-13.568-2.217c-3.583-1.479-6.45-3.536-8.598-6.181c-2.151-2.641-3.652-5.844-4.503-9.605
	c-0.854-3.762-1.275-7.929-1.275-12.497V469.396z"/>
</svg>
