<?xml version="1.0" encoding="utf-8"?>
<!-- Generator: Adobe Illustrator 16.0.2, SVG Export Plug-In . SVG Version: 6.00 Build 0)  -->
<!DOCTYPE svg PUBLIC "-//W3C//DTD SVG 1.1//EN" "http://www.w3.org/Graphics/SVG/1.1/DTD/svg11.dtd">
<svg version="1.1" id="Слой_1" xmlns="http://www.w3.org/2000/svg" xmlns:xlink="http://www.w3.org/1999/xlink" x="0px" y="0px"
	 width="1000px" height="1000px" viewBox="0 0 1000 1000" enable-background="new 0 0 1000 1000" xml:space="preserve">
<path fill="#8B3A17" d="M663.74,577.766c-22.448,19.374-54.259,27.892-79.225,10.013c-25.223,13.18-54.588,20.78-85.924,20.814
	c-31.335-0.034-60.694-7.635-85.918-20.814c-24.963,17.879-56.773,9.361-79.222-10.013c-48.619,3.894-79.101,9.482-79.101,15.692
	c0,11.768,109.349,21.307,244.242,21.307c134.895,0,244.251-9.539,244.251-21.307C742.843,587.248,712.359,581.659,663.74,577.766z"
	/>
<path fill="#8B3A17" d="M520.577,284.164c2.543-6.9,9.688-10.167,9.688-10.167s13.801,3.025,21.445,17.068
	C553.476,294.304,543.698,284.286,520.577,284.164z M548.857,306.568c3.951,1.818,15.8-7.028,35.692-8.535
	C566.387,291.562,545.575,305.048,548.857,306.568z M412.189,330.711c18.256-8.062,32.87-5.855,35.486-9.325
	C449.858,318.495,425.146,316.442,412.189,330.711z M474.841,298.18c-26.56,6.13-35.593,43.736,23.75,27.277
	c59.354,16.459,50.312-21.147,23.759-27.277c40.131,27.591-29.357,28.732-18.644,9.219c4.499-1.481,9.382-4.668,9.382-9.461
	c0-3.412-7.248-5.115-14.497-5.115c-7.248,0-14.494,1.703-14.494,5.115c0,4.792,4.88,7.98,9.386,9.461
	C504.199,326.912,434.696,325.771,474.841,298.18z M691.173,551.146c-6.424,14.138-17.434,27.205-31.002,36.797
	c-14.092,9.962-30.064,15.447-44.977,15.447c-0.003,0-0.005,0-0.008,0c-11.294-0.001-21.73-2.987-31.074-8.883
	c-26.072,12.992-55.56,19.862-85.515,19.896h-0.006h-0.007c-29.949-0.033-59.435-6.903-85.508-19.896
	c-9.346,5.896-19.781,8.883-31.074,8.883c-14.914,0-30.889-5.488-44.984-15.453c-13.569-9.593-24.579-22.663-31.003-36.801
	c-10.447-22.993-7.648-46.246,7.679-63.797c1.572-1.8,3.294-3.5,5.154-5.089c-9.283-7.924-15.367-18.755-17.757-31.753
	c-3.521-19.12,1.568-40.287,14.332-59.602c13.55-20.505,35.002-37.675,62.253-49.883c-6.115-20.22-1.644-41.813,4.903-56.008
	c-9.865-19.519-7.205-47.689,6.154-59.722c6.38-5.751,16.17-8.919,27.565-8.919c13.855,0,27.52,4.508,36.633,11.931
	c14.557-4.57,29.896-6.898,45.65-6.923c15.777,0.025,31.118,2.353,45.669,6.923c9.112-7.423,22.779-11.931,36.638-11.931
	c11.397,0,21.189,3.168,27.571,8.92c13.358,12.039,16.017,40.21,6.151,59.723c1.166,2.538,2.229,5.246,3.178,8.101
	c11.897-0.707,23.729,2.749,34.147,9.922c30.084,20.724,48.879,73.349,19.709,140.286c2.523,11.127,2.928,22.802,1.206,34.786
	c3.988,2.605,7.556,5.702,10.641,9.241C698.821,504.893,701.622,528.149,691.173,551.146z M408.549,282.578
	c-28.078,38.349-12.98,107.193,90.043,107.193c27.442,0,59.81-4.255,80.211-22.444c-0.579-0.678-1.179-1.321-1.74-2.056
	c-8.741-11.597-9.43-25.686-2.569-38.301c-13.141-3.649-22.888-2.817-24.984-5.583c-1.751-2.321,13.8-4.083,26.707,2.671
	c1.788-2.738,3.904-5.402,6.409-7.922c0.033-0.026,0.051-0.051,0.086-0.082c0.393-0.402,0.819-0.754,1.226-1.147
	c-17.99-2.988-30.623,1.577-33.746-1.125c-2.631-2.263,18.982-8.922,34.567,0.352c4.508-4.159,9.275-7.5,14.207-9.977
	c-1.97-7.518-5.389-14.829-10.33-21.579c11.911-4.327,13.862-33.99,5.563-41.471c-8.766-7.896-43.111-1.688-40.862,13.458
	c-17.031-8.049-35.924-11.858-54.743-11.886c-18.812,0.028-37.711,3.837-54.743,11.886c2.257-15.146-32.098-21.354-40.855-13.458
	C394.689,248.588,396.647,278.25,408.549,282.578z M515.657,419.808c-1.943,7.623-8.834,13.271-17.065,13.271
	c-8.226,0-15.123-5.652-17.066-13.278c-37.021,8.298-64.886,42.991-64.886,84.439c0,47.617,36.764,86.357,81.953,86.357
	c45.19,0,81.955-38.74,81.955-86.357C580.547,462.794,552.68,428.108,515.657,419.808z M498.592,425.639
	c8.288,0,15.009-6.715,15.009-15.008c0-2.332-0.547-4.531-1.496-6.5c-2.424-5.03-7.556-8.509-13.513-8.509
	c-5.967,0-11.109,3.49-13.531,8.533c-0.942,1.963-1.486,4.153-1.486,6.476C483.575,418.924,490.303,425.639,498.592,425.639z
	 M471.031,590.893c-34.479-12.138-59.392-46.394-59.392-86.651c0-44.036,29.818-80.873,69.35-89.449
	c0.068-1.796,0.396-3.524,0.963-5.145c-54.838-6.561-83.406-44.082-88.382-51.22c-0.196-0.231-0.404-0.457-0.595-0.69
	c-53.335,21.454-76.134,60.635-70.933,88.901c3.248,17.61,17.157,28.117,37.215,28.117c0.028,0,0.059,0,0.095,0
	c7.586-0.021,13.236-2.189,17.12-5.64c-5.16-1.187-11.793-4.417-17.031-12.812c9.107,3.929,17.375,3.864,22.848,3.066
	c0.755-2.988,0.902-6.202,0.434-9.462c-5.666,0.562-14.319-0.263-22.682-7.794c7.87,1.01,14.509-0.293,19.44-2.012
	c-3.927-7.463-11.042-13.97-20.98-16.829c22.155-10.819,43.43,8.503,39.545,36.167c-1.496,10.683-7.116,19.199-15.543,24.545
	c6.609,5.337,11.638,12.817,13.285,22.114c-0.086-0.082-0.16-0.167-0.242-0.241c-11.409-9.967-25.582-15.675-38.891-15.675
	c-2.696,0-5.307,0.238-7.799,0.708c-5.415,0.998-10.267,3.087-14.333,6.102c-1.744,1.287-3.357,2.73-4.778,4.362
	c-37.258,42.664,49.495,108.968,80.502,67.283C429.039,580.165,449.782,587.503,471.031,590.893z M667.444,501.353
	c-1.425-1.632-3.031-3.075-4.785-4.362c-4.067-3.014-8.916-5.104-14.327-6.102c-2.488-0.47-5.097-0.708-7.803-0.708
	c-13.301,0-27.482,5.708-38.887,15.675c-0.087,0.074-0.16,0.159-0.246,0.241c3.52-19.738,22.14-31.416,39.133-31.416
	c3.825,0,7.535,0.363,11.089,1.055c6.724-37.138-21-83.621-21-83.621s15.451,9.894,26.511,29.568
	c16.12-47.482,4.594-86.047-17.273-101.107c-14.748-10.161-32.003-7.747-46.193,6.437c-0.014,0.019-0.043,0.041-0.064,0.06
	c-5.359,5.374-7.803,10.91-8.119,16.093c4.491-2.803,11.462-5.21,21.104-2.98c-9.211,3.669-15.02,9.555-18.335,13.983
	c1.585,2.654,3.762,5.029,6.392,7.002c3.613-4.4,10.32-9.948,21.553-10.53c-6.279,4.867-10.054,10.467-12.326,15.174
	c8.055,2.499,17.693,2.067,26.744-2.932c-6.426,18.683-26.137,23.236-42.361,12.844c-14.364,13.371-38.477,29.788-73.016,33.921
	c0-0.001-0.001-0.002-0.001-0.003c0.569,1.627,0.898,3.364,0.965,5.169c39.529,8.579,69.351,45.395,69.351,89.428
	c0,40.258-24.915,74.515-59.395,86.651c21.252-3.39,41.997-10.728,60.781-22.257C617.943,610.32,704.703,544.017,667.444,501.353z
	 M476.614,284.164c-2.543-6.9-9.688-10.167-9.688-10.167s-13.799,3.025-21.451,17.068
	C443.708,294.304,453.494,284.286,476.614,284.164z M446.999,313.782c2.743-2.371-20.996-9.569-36.649,1.654
	C429.882,311.39,443.708,316.625,446.999,313.782z M412.645,298.033c19.881,1.507,31.731,10.353,35.682,8.535
	C451.618,305.048,430.797,291.562,412.645,298.033z M581.908,275.422c9.322-6.78,8.597-24.453,5.328-26.508
	c-3.269-2.058-18.152-4.236-26.022,8.835C575.745,264.769,581.908,275.422,581.908,275.422z M352.698,521.674
	c2.969-2.028,3.306-6.685,0.769-10.407c-2.542-3.722-7.004-5.104-9.973-3.073c-2.96,2.021-3.306,6.676-0.763,10.397
	C345.274,522.318,349.729,523.695,352.698,521.674z M628.234,516.583c3.42,1.101,7.307-1.498,8.675-5.787
	c1.387-4.288-0.263-8.653-3.679-9.755c-3.425-1.101-7.319,1.486-8.692,5.783C623.16,511.115,624.813,515.481,628.234,516.583z
	 M653.69,508.193c-2.966-2.031-7.423-0.648-9.966,3.073c-2.535,3.723-2.207,8.379,0.764,10.407c2.968,2.021,7.428,0.645,9.972-3.083
	C657.003,514.869,656.649,510.214,653.69,508.193z M638.477,526.52c-7.919-4.673-24.183-5.277-29.035,2.958
	c-4.846,8.223,0.828,19.315,12.027,25.914c11.183,6.594,23.643,6.201,28.491-2.024C654.806,545.132,646.415,531.209,638.477,526.52z
	 M415.275,275.422c0,0,6.17-10.653,20.704-17.673c-7.873-13.071-22.756-10.893-26.025-8.835
	C406.686,250.969,405.959,268.642,415.275,275.422z M657.612,524.926c-3.49,2.847-4.496,7.406-2.22,10.188
	c2.263,2.781,6.939,2.732,10.429-0.113c3.494-2.85,4.49-7.418,2.22-10.195C665.778,522.027,661.105,522.08,657.612,524.926z
	 M368.952,516.583c3.422-1.102,5.072-5.468,3.701-9.759c-1.384-4.297-5.268-6.884-8.69-5.783c-3.416,1.102-5.065,5.467-3.688,9.755
	C361.654,515.085,365.537,517.684,368.952,516.583z M339.582,524.926c-3.498-2.846-8.173-2.898-10.438-0.121
	c-2.271,2.777-1.273,7.346,2.222,10.195c3.496,2.846,8.164,2.895,10.436,0.113C344.065,532.332,343.068,527.772,339.582,524.926z
	 M358.707,526.52c-7.937,4.689-16.327,18.612-11.476,26.848c4.852,8.226,17.301,8.618,28.492,2.024
	c11.19-6.599,16.869-17.691,12.026-25.914C382.892,521.242,366.637,521.847,358.707,526.52z"/>
<path fill="#8B3A17" d="M170.596,776.468c-21.012,0-37.019-5.843-48.022-17.531c-11.003-11.685-16.504-28.282-16.504-49.793
	c0-10.691,1.678-20.234,5.035-28.627s7.955-15.479,13.801-21.26c5.842-5.781,12.804-10.164,20.887-13.148
	c8.08-2.983,16.845-4.476,26.295-4.476c5.469,0,10.443,0.405,14.919,1.212c4.476,0.811,8.392,1.743,11.749,2.798
	c3.357,1.058,6.154,2.145,8.392,3.264s3.853,1.99,4.849,2.61l-8.392,23.499c-3.98-2.113-8.61-3.917-13.894-5.409
	c-5.286-1.491-11.283-2.237-17.997-2.237c-4.476,0-8.858,0.746-13.148,2.237c-4.289,1.492-8.083,3.888-11.376,7.181
	c-3.295,3.295-5.938,7.553-7.926,12.774c-1.99,5.222-2.984,11.563-2.984,19.022c0,5.968,0.653,11.533,1.958,16.691
	c1.306,5.16,3.418,9.604,6.341,13.334c2.92,3.729,6.743,6.685,11.469,8.858c4.724,2.177,10.444,3.264,17.157,3.264
	c4.226,0,8.02-0.248,11.376-0.746c3.357-0.495,6.341-1.087,8.952-1.771c2.611-0.682,4.91-1.46,6.9-2.331
	c1.987-0.869,3.791-1.679,5.409-2.425l8.019,23.312c-4.103,2.488-9.884,4.727-17.344,6.714
	C189.059,775.471,180.416,776.468,170.596,776.468z M312.05,724.622c0,7.711-1.119,14.766-3.357,21.167
	c-2.238,6.405-5.472,11.875-9.698,16.411c-4.228,4.54-9.295,8.052-15.199,10.537c-5.906,2.485-12.527,3.73-19.861,3.73
	c-7.212,0-13.771-1.245-19.675-3.73c-5.907-2.485-10.974-5.997-15.199-10.537c-4.229-4.536-7.524-10.006-9.884-16.411
	c-2.363-6.401-3.543-13.456-3.543-21.167c0-7.707,1.212-14.732,3.637-21.073s5.781-11.749,10.071-16.226
	c4.289-4.476,9.386-7.955,15.292-10.443c5.903-2.485,12.337-3.729,19.302-3.729c7.087,0,13.582,1.244,19.489,3.729
	c5.903,2.488,10.971,5.968,15.199,10.443c4.226,4.477,7.521,9.885,9.884,16.226C310.867,709.89,312.05,716.915,312.05,724.622z
	 M283.703,724.622c0-8.578-1.71-15.321-5.128-20.234c-3.421-4.91-8.299-7.366-14.64-7.366s-11.253,2.456-14.733,7.366
	c-3.482,4.913-5.222,11.656-5.222,20.234c0,8.579,1.739,15.386,5.222,20.421c3.479,5.035,8.392,7.554,14.733,7.554
	s11.219-2.519,14.64-7.554C281.992,740.008,283.703,733.201,283.703,724.622z M379.13,721.825c0-8.952-1.151-15.293-3.45-19.022
	c-2.302-3.73-6.248-5.595-11.842-5.595c-1.743,0-3.543,0.093-5.408,0.279c-1.865,0.187-3.669,0.405-5.409,0.653v75.716h-27.787
	v-94.738c2.36-0.621,5.128-1.273,8.299-1.958c3.17-0.683,6.527-1.306,10.07-1.865c3.543-0.56,7.18-0.994,10.91-1.306
	c3.73-0.309,7.396-0.466,11.003-0.466c7.087,0,12.836,0.903,17.25,2.704c4.412,1.804,8.048,3.948,10.91,6.434
	c3.978-2.858,8.546-5.097,13.707-6.714c5.158-1.614,9.914-2.424,14.267-2.424c7.833,0,14.267,1.09,19.302,3.264
	c5.035,2.177,9.045,5.254,12.029,9.231c2.984,3.98,5.035,8.704,6.154,14.173c1.119,5.473,1.678,11.563,1.678,18.276v55.389h-27.787
	v-52.031c0-8.952-1.151-15.293-3.45-19.022c-2.302-3.73-6.248-5.595-11.842-5.595c-1.492,0-3.576,0.373-6.248,1.119
	c-2.675,0.745-4.881,1.678-6.621,2.797c0.868,2.861,1.428,5.875,1.678,9.045c0.248,3.171,0.373,6.56,0.373,10.164v53.523H379.13
	V721.825z M473.234,725.555c0-8.701,1.334-16.318,4.01-22.846c2.672-6.527,6.183-11.964,10.537-16.317
	c4.351-4.351,9.354-7.646,15.013-9.885c5.656-2.237,11.47-3.356,17.438-3.356c13.923,0,24.926,4.26,33.009,12.774
	c8.081,8.518,12.122,21.045,12.122,37.578c0,1.617-0.063,3.39-0.187,5.315c-0.125,1.929-0.25,3.637-0.373,5.129h-63.034
	c0.62,5.72,3.293,10.257,8.019,13.613c4.724,3.357,11.064,5.036,19.022,5.036c5.097,0,10.1-0.467,15.013-1.399
	c4.91-0.933,8.92-2.08,12.029-3.45l3.729,22.566c-1.492,0.745-3.482,1.491-5.968,2.237c-2.488,0.746-5.254,1.398-8.299,1.958
	c-3.048,0.56-6.312,1.026-9.791,1.399c-3.482,0.373-6.964,0.56-10.443,0.56c-8.829,0-16.505-1.306-23.032-3.917
	c-6.527-2.61-11.936-6.184-16.225-10.723c-4.29-4.537-7.46-9.914-9.511-16.132C474.26,739.48,473.234,732.767,473.234,725.555z
	 M538.508,714.925c-0.126-2.36-0.53-4.662-1.213-6.9c-0.685-2.238-1.742-4.226-3.17-5.968c-1.431-1.739-3.234-3.17-5.408-4.289
	c-2.177-1.119-4.881-1.679-8.112-1.679c-3.109,0-5.781,0.53-8.02,1.585c-2.238,1.058-4.103,2.457-5.595,4.196
	c-1.492,1.742-2.643,3.762-3.45,6.062c-0.81,2.302-1.398,4.633-1.771,6.993H538.508z M607.883,759.123
	c0,5.596-1.771,9.855-5.314,12.775c-3.544,2.92-7.554,4.383-12.029,4.383s-8.485-1.463-12.028-4.383
	c-3.544-2.92-5.315-7.18-5.315-12.775c0-5.595,1.771-9.852,5.315-12.774c3.543-2.92,7.553-4.383,12.028-4.383
	s8.485,1.463,12.029,4.383C606.111,749.271,607.883,753.528,607.883,759.123z M678.096,776.468c-21.013,0-37.02-5.843-48.022-17.531
	c-11.003-11.685-16.505-28.282-16.505-49.793c0-10.691,1.679-20.234,5.036-28.627c3.356-8.393,7.955-15.479,13.8-21.26
	c5.843-5.781,12.805-10.164,20.888-13.148c8.08-2.983,16.846-4.476,26.295-4.476c5.47,0,10.444,0.405,14.92,1.212
	c4.476,0.811,8.393,1.743,11.749,2.798c3.356,1.058,6.154,2.145,8.393,3.264c2.237,1.119,3.852,1.99,4.849,2.61l-8.393,23.499
	c-3.98-2.113-8.61-3.917-13.894-5.409c-5.286-1.491-11.283-2.237-17.997-2.237c-4.476,0-8.858,0.746-13.147,2.237
	c-4.289,1.492-8.083,3.888-11.376,7.181c-3.296,3.295-5.938,7.553-7.926,12.774c-1.99,5.222-2.984,11.563-2.984,19.022
	c0,5.968,0.653,11.533,1.959,16.691c1.305,5.16,3.418,9.604,6.341,13.334c2.919,3.729,6.742,6.685,11.469,8.858
	c4.724,2.177,10.443,3.264,17.157,3.264c4.226,0,8.02-0.248,11.376-0.746c3.357-0.495,6.341-1.087,8.952-1.771
	c2.61-0.682,4.91-1.46,6.9-2.331c1.987-0.869,3.791-1.679,5.408-2.425l8.019,23.312c-4.103,2.488-9.884,4.727-17.344,6.714
	C696.559,775.471,687.915,776.468,678.096,776.468z M766.939,673.15c8.206,0,15.042,0.933,20.515,2.797
	c5.469,1.865,9.852,4.54,13.147,8.02c3.293,3.482,5.624,7.71,6.993,12.682c1.367,4.974,2.052,10.508,2.052,16.598v57.813
	c-3.98,0.872-9.512,1.897-16.598,3.077c-7.087,1.181-15.666,1.772-25.736,1.772c-6.341,0-12.093-0.56-17.251-1.679
	c-5.16-1.119-9.604-2.952-13.334-5.502c-3.729-2.547-6.592-5.874-8.579-9.977c-1.99-4.104-2.983-9.139-2.983-15.106
	c0-5.717,1.148-10.566,3.45-14.547c2.299-3.978,5.376-7.147,9.231-9.511c3.852-2.36,8.267-4.07,13.241-5.129
	c4.971-1.055,10.132-1.585,15.479-1.585c3.604,0,6.807,0.157,9.604,0.467c2.797,0.312,5.064,0.717,6.807,1.212v-2.611
	c0-4.724-1.431-8.515-4.289-11.376c-2.861-2.858-7.833-4.289-14.92-4.289c-4.726,0-9.389,0.344-13.986,1.025
	c-4.602,0.686-8.579,1.649-11.936,2.891l-3.544-22.379c1.614-0.495,3.637-1.025,6.062-1.585c2.424-0.56,5.064-1.055,7.926-1.492
	c2.858-0.435,5.875-0.807,9.045-1.119C760.506,673.308,763.705,673.15,766.939,673.15z M769.178,754.461
	c2.732,0,5.344-0.061,7.832-0.187c2.486-0.122,4.476-0.309,5.968-0.56v-21.073c-1.119-0.248-2.797-0.495-5.035-0.746
	c-2.238-0.248-4.289-0.373-6.154-0.373c-2.61,0-5.067,0.157-7.366,0.466c-2.302,0.313-4.321,0.903-6.062,1.772
	c-1.742,0.871-3.108,2.051-4.103,3.543c-0.996,1.492-1.492,3.357-1.492,5.595c0,4.354,1.46,7.366,4.383,9.045
	C760.068,753.622,764.078,754.461,769.178,754.461z M826.038,651.33l27.787-4.476v28.906h33.383v23.126h-33.383v34.501
	c0,5.845,1.026,10.508,3.077,13.986c2.052,3.482,6.184,5.223,12.402,5.223c2.983,0,6.061-0.28,9.231-0.84
	c3.17-0.56,6.061-1.334,8.672-2.331l3.916,21.633c-3.356,1.37-7.087,2.55-11.189,3.544c-4.103,0.993-9.139,1.492-15.106,1.492
	c-7.585,0-13.864-1.026-18.835-3.077c-4.975-2.052-8.952-4.91-11.936-8.579c-2.984-3.666-5.067-8.112-6.248-13.334
	c-1.183-5.222-1.771-11.003-1.771-17.344V651.33z"/>
</svg>
