<?xml version="1.0" encoding="utf-8"?>
<!-- Generator: Adobe Illustrator 16.0.2, SVG Export Plug-In . SVG Version: 6.00 Build 0)  -->
<!DOCTYPE svg PUBLIC "-//W3C//DTD SVG 1.1//EN" "http://www.w3.org/Graphics/SVG/1.1/DTD/svg11.dtd">
<svg version="1.1" id="Слой_1" xmlns="http://www.w3.org/2000/svg" xmlns:xlink="http://www.w3.org/1999/xlink" x="0px" y="0px"
	 width="1000px" height="1000px" viewBox="0 0 1000 1000" enable-background="new 0 0 1000 1000" xml:space="preserve">
<path fill="#8B3A17" d="M399.527,559.549c-15.139,0-26.669-4.208-34.597-12.629c-7.926-8.419-11.89-20.374-11.89-35.87
	c0-7.703,1.21-14.577,3.628-20.625c2.418-6.047,5.731-11.151,9.942-15.317c4.208-4.164,9.224-7.323,15.047-9.474
	c5.82-2.148,12.137-3.222,18.943-3.222c3.94,0,7.523,0.292,10.749,0.873c3.225,0.584,6.044,1.256,8.465,2.016
	c2.418,0.76,4.434,1.545,6.045,2.349c1.614,0.807,2.776,1.435,3.492,1.881l-6.045,16.931c-2.867-1.523-6.205-2.823-10.008-3.899
	c-3.809-1.071-8.13-1.611-12.966-1.611c-3.226,0-6.382,0.54-9.472,1.611c-3.09,1.077-5.825,2.803-8.196,5.174
	c-2.375,2.374-4.278,5.442-5.71,9.204c-1.434,3.762-2.149,8.33-2.149,13.703c0,4.302,0.47,8.309,1.41,12.026
	c0.941,3.718,2.462,6.918,4.567,9.606c2.105,2.685,4.859,4.813,8.265,6.381c3.402,1.566,7.523,2.352,12.359,2.352
	c3.046,0,5.778-0.179,8.196-0.537s4.566-0.785,6.45-1.277c1.881-0.493,3.536-1.05,4.971-1.678c1.43-0.628,2.732-1.212,3.897-1.749
	l5.775,16.797c-2.955,1.79-7.119,3.403-12.492,4.836C412.826,558.83,406.602,559.549,399.527,559.549z M501.434,522.2
	c0,5.552-0.807,10.636-2.418,15.249c-1.61,4.615-3.943,8.556-6.986,11.822c-3.046,3.271-6.697,5.8-10.949,7.59
	c-4.255,1.79-9.025,2.688-14.31,2.688c-5.194,0-9.919-0.897-14.174-2.688s-7.907-4.318-10.95-7.59
	c-3.046-3.267-5.42-7.207-7.122-11.822c-1.702-4.613-2.55-9.697-2.55-15.249c0-5.555,0.873-10.616,2.619-15.183
	c1.746-4.568,4.164-8.463,7.256-11.69c3.09-3.222,6.758-5.73,11.016-7.523c4.252-1.79,8.887-2.688,13.905-2.688
	c5.106,0,9.785,0.898,14.04,2.688c4.252,1.793,7.904,4.302,10.95,7.523c3.045,3.228,5.419,7.122,7.121,11.69
	C500.58,511.584,501.434,516.646,501.434,522.2z M481.011,522.2c0-6.18-1.231-11.038-3.693-14.579
	c-2.465-3.536-5.979-5.305-10.547-5.305s-8.107,1.769-10.614,5.305c-2.509,3.541-3.762,8.399-3.762,14.579
	s1.253,11.085,3.762,14.712c2.506,3.627,6.045,5.441,10.614,5.441s8.083-1.814,10.547-5.441
	C479.779,533.285,481.011,528.38,481.011,522.2z M549.76,520.185c0-6.45-0.828-11.016-2.486-13.706
	c-1.658-2.686-4.5-4.029-8.532-4.029c-1.253,0-2.55,0.068-3.894,0.203c-1.344,0.133-2.644,0.29-3.896,0.469v54.547h-20.019v-68.25
	c1.699-0.449,3.695-0.917,5.979-1.41c2.283-0.493,4.701-0.942,7.254-1.347c2.553-0.402,5.175-0.713,7.859-0.939
	c2.688-0.223,5.329-0.336,7.929-0.336c5.105,0,9.245,0.652,12.426,1.95c3.178,1.297,5.797,2.842,7.859,4.635
	c2.864-2.06,6.158-3.674,9.876-4.838c3.718-1.162,7.144-1.746,10.278-1.746c5.643,0,10.28,0.785,13.907,2.352
	c3.624,1.567,6.516,3.784,8.666,6.651c2.146,2.867,3.624,6.271,4.432,10.211c0.807,3.943,1.209,8.331,1.209,13.164v39.904h-20.019
	v-37.483c0-6.45-0.829-11.016-2.484-13.706c-1.657-2.686-4.502-4.029-8.531-4.029c-1.077,0-2.578,0.27-4.503,0.807
	c-1.928,0.537-3.514,1.209-4.77,2.016c0.628,2.061,1.029,4.233,1.209,6.516c0.179,2.283,0.27,4.727,0.27,7.323v38.558H549.76
	V520.185z M617.554,522.872c0-6.271,0.961-11.757,2.889-16.457c1.928-4.704,4.456-8.62,7.593-11.757
	c3.134-3.137,6.739-5.511,10.814-7.125c4.076-1.611,8.262-2.418,12.561-2.418c10.033,0,17.959,3.071,23.783,9.207
	c5.819,6.133,8.73,15.16,8.73,27.071c0,1.165-0.044,2.439-0.133,3.831c-0.091,1.388-0.182,2.618-0.267,3.692h-45.413
	c0.446,4.12,2.372,7.389,5.775,9.807c3.404,2.418,7.973,3.63,13.704,3.63c3.673,0,7.278-0.336,10.817-1.008
	c3.536-0.672,6.425-1.501,8.664-2.486l2.69,16.256c-1.077,0.54-2.512,1.074-4.302,1.614c-1.793,0.536-3.784,1.008-5.977,1.409
	c-2.197,0.402-4.547,0.738-7.056,1.009c-2.509,0.27-5.015,0.401-7.523,0.401c-6.358,0-11.892-0.938-16.593-2.819
	c-4.703-1.882-8.598-4.456-11.69-7.726c-3.09-3.271-5.372-7.144-6.852-11.621C618.295,532.904,617.554,528.066,617.554,522.872z
	 M664.58,515.214c-0.091-1.702-0.383-3.357-0.876-4.974c-0.493-1.611-1.253-3.043-2.283-4.297c-1.029-1.256-2.329-2.282-3.894-3.09
	c-1.57-0.807-3.52-1.209-5.844-1.209c-2.242,0-4.167,0.381-5.781,1.141c-1.61,0.763-2.955,1.771-4.031,3.023
	c-1.074,1.256-1.903,2.71-2.484,4.368c-0.584,1.657-1.008,3.335-1.275,5.037H664.58z M714.559,547.055
	c0,4.031-1.275,7.1-3.831,9.203c-2.55,2.104-5.438,3.159-8.664,3.159c-3.225,0-6.113-1.055-8.666-3.159
	c-2.554-2.104-3.828-5.172-3.828-9.203c0-4.029,1.274-7.097,3.828-9.201c2.553-2.106,5.441-3.158,8.666-3.158
	c3.226,0,6.114,1.052,8.664,3.158C713.283,539.958,714.559,543.025,714.559,547.055z M765.14,559.549
	c-15.136,0-26.669-4.208-34.598-12.629c-7.923-8.419-11.889-20.374-11.889-35.87c0-7.703,1.212-14.577,3.63-20.625
	c2.418-6.047,5.73-11.151,9.941-15.317c4.211-4.164,9.224-7.323,15.048-9.474c5.821-2.148,12.137-3.222,18.941-3.222
	c3.941,0,7.524,0.292,10.751,0.873c3.226,0.584,6.045,1.256,8.463,2.016s4.435,1.545,6.048,2.349
	c1.611,0.807,2.773,1.435,3.492,1.881l-6.048,16.931c-2.866-1.523-6.201-2.823-10.008-3.899c-3.809-1.071-8.129-1.611-12.965-1.611
	c-3.226,0-6.381,0.54-9.471,1.611c-3.091,1.077-5.825,2.803-8.196,5.174c-2.377,2.374-4.279,5.442-5.712,9.204
	c-1.432,3.762-2.147,8.33-2.147,13.703c0,4.302,0.468,8.309,1.409,12.026c0.942,3.718,2.463,6.918,4.569,9.606
	c2.104,2.685,4.858,4.813,8.262,6.381c3.404,1.566,7.523,2.352,12.359,2.352c3.046,0,5.778-0.179,8.196-0.537
	c2.421-0.358,4.568-0.785,6.449-1.277c1.881-0.493,3.536-1.05,4.974-1.678c1.43-0.628,2.729-1.212,3.895-1.749l5.774,16.797
	c-2.955,1.79-7.118,3.403-12.491,4.836C778.444,558.83,772.215,559.549,765.14,559.549z M829.145,485.116
	c5.912,0,10.839,0.675,14.78,2.016c3.94,1.344,7.097,3.271,9.474,5.777c2.371,2.512,4.051,5.558,5.037,9.138
	c0.982,3.583,1.479,7.568,1.479,11.955v41.653c-2.867,0.628-6.852,1.363-11.961,2.214c-5.103,0.852-11.285,1.278-18.536,1.278
	c-4.569,0-8.714-0.402-12.429-1.209c-3.718-0.808-6.921-2.126-9.608-3.963c-2.686-1.837-4.748-4.233-6.18-7.188
	c-1.433-2.957-2.151-6.584-2.151-10.883c0-4.117,0.829-7.612,2.487-10.482c1.657-2.863,3.872-5.146,6.65-6.852
	c2.773-1.699,5.957-2.933,9.54-3.692c3.58-0.761,7.301-1.144,11.15-1.144c2.597,0,4.905,0.113,6.921,0.336
	c2.013,0.227,3.646,0.518,4.904,0.876v-1.884c0-3.4-1.032-6.133-3.093-8.195c-2.06-2.061-5.643-3.09-10.748-3.09
	c-3.404,0-6.761,0.248-10.077,0.74c-3.313,0.493-6.18,1.188-8.598,2.082l-2.553-16.124c1.162-0.358,2.619-0.738,4.365-1.14
	c1.749-0.405,3.648-0.763,5.712-1.077c2.06-0.312,4.232-0.581,6.518-0.804C824.512,485.231,826.817,485.116,829.145,485.116z
	 M830.761,543.697c1.966,0,3.848-0.047,5.64-0.135c1.791-0.088,3.226-0.223,4.302-0.404v-15.18c-0.81-0.18-2.019-0.358-3.63-0.54
	c-1.61-0.179-3.09-0.268-4.434-0.268c-1.878,0-3.651,0.113-5.307,0.336c-1.658,0.224-3.112,0.65-4.367,1.275
	c-1.254,0.628-2.239,1.479-2.955,2.553c-0.717,1.077-1.074,2.421-1.074,4.032c0,3.134,1.052,5.307,3.156,6.516
	C824.198,543.092,827.084,543.697,830.761,543.697z M871.723,469.396l20.019-3.222V487h24.048v16.662h-24.048v24.854
	c0,4.211,0.738,7.568,2.217,10.077c1.479,2.509,4.456,3.762,8.934,3.762c2.151,0,4.365-0.204,6.651-0.605
	c2.285-0.402,4.367-0.961,6.246-1.68l2.822,15.587c-2.418,0.985-5.105,1.834-8.061,2.55c-2.958,0.719-6.585,1.077-10.884,1.077
	c-5.464,0-9.988-0.741-13.568-2.217c-3.583-1.479-6.45-3.536-8.598-6.181c-2.151-2.641-3.652-5.844-4.503-9.605
	c-0.854-3.762-1.275-7.929-1.275-12.497V469.396z"/>
<path fill="#8B3A17" d="M297.981,579.813c-11.102,9.581-26.834,13.794-39.181,4.952c-12.474,6.519-26.997,10.277-42.494,10.294
	c-15.497-0.017-30.016-3.777-42.491-10.294c-12.345,8.842-28.077,4.629-39.179-4.952c-24.045,1.926-39.12,4.689-39.12,7.761
	c0,5.819,54.079,10.537,120.791,10.537c66.713,0,120.795-4.718,120.795-10.537C337.102,584.503,322.027,581.739,297.981,579.813z"/>
<path fill="#8B3A17" d="M227.18,434.611c1.257-3.413,4.791-5.028,4.791-5.028s6.826,1.495,10.605,8.44
	C243.449,439.626,238.614,434.671,227.18,434.611z M241.166,445.691c1.953,0.898,7.813-3.476,17.651-4.222
	C249.835,438.27,239.543,444.939,241.166,445.691z M173.576,457.631c9.028-3.987,16.255-2.896,17.549-4.612
	C192.206,451.589,179.984,450.574,173.576,457.631z M204.561,441.542c-13.135,3.032-17.603,21.63,11.746,13.49
	c29.354,8.14,24.882-10.458,11.75-13.49c19.847,13.646-14.519,14.209-9.22,4.56c2.225-0.732,4.64-2.309,4.64-4.679
	c0-1.688-3.584-2.53-7.17-2.53c-3.584,0-7.168,0.842-7.168,2.53c0,2.37,2.413,3.946,4.642,4.679
	C219.08,455.752,184.707,455.188,204.561,441.542z M311.548,566.648c-3.176,6.991-8.622,13.454-15.332,18.198
	c-6.97,4.927-14.869,7.64-22.243,7.64c-0.001,0-0.002,0-0.004,0c-5.586-0.002-10.747-1.478-15.368-4.394
	c-12.894,6.426-27.478,9.823-42.292,9.84h-0.003h-0.003c-14.812-0.017-29.394-3.414-42.288-9.84
	c-4.623,2.916-9.783,4.394-15.369,4.394c-7.375,0-15.275-2.715-22.247-7.643c-6.71-4.745-12.155-11.209-15.333-18.201
	c-5.167-11.37-3.782-22.87,3.798-31.551c0.777-0.891,1.629-1.73,2.548-2.516c-4.591-3.92-7.6-9.276-8.781-15.704
	c-1.742-9.456,0.775-19.925,7.087-29.478c6.702-10.14,17.311-18.631,30.788-24.668c-3.025-10-0.813-20.679,2.425-27.7
	c-4.879-9.653-3.563-23.585,3.043-29.536c3.155-2.844,7.997-4.411,13.632-4.411c6.853,0,13.61,2.229,18.117,5.9
	c7.2-2.26,14.786-3.411,22.577-3.424c7.803,0.013,15.39,1.164,22.586,3.424c4.507-3.671,11.266-5.9,18.12-5.9
	c5.637,0,10.479,1.567,13.635,4.412c6.606,5.954,7.921,19.886,3.042,29.536c0.577,1.255,1.103,2.595,1.572,4.006
	c5.884-0.35,11.735,1.36,16.888,4.907c14.878,10.25,24.173,36.275,9.747,69.38c1.248,5.503,1.448,11.276,0.596,17.204
	c1.973,1.287,3.737,2.818,5.263,4.569C315.332,543.773,316.716,555.275,311.548,566.648z M171.775,433.827
	c-13.886,18.965-6.418,53.012,44.531,53.012c13.571,0,29.58-2.104,39.669-11.1c-0.287-0.335-0.583-0.653-0.861-1.016
	c-4.322-5.736-4.663-12.703-1.27-18.942c-6.499-1.805-11.319-1.394-12.356-2.761c-0.866-1.148,6.824-2.02,13.208,1.321
	c0.884-1.354,1.931-2.672,3.17-3.918c0.016-0.012,0.024-0.025,0.042-0.04c0.194-0.198,0.406-0.373,0.606-0.567
	c-8.897-1.478-15.145,0.78-16.689-0.557c-1.301-1.119,9.388-4.413,17.095,0.173c2.229-2.056,4.587-3.709,7.026-4.934
	c-0.974-3.718-2.665-7.333-5.109-10.671c5.891-2.141,6.856-16.811,2.751-20.51c-4.335-3.905-21.321-0.835-20.208,6.655
	c-8.423-3.98-17.767-5.864-27.074-5.878c-9.303,0.014-18.65,1.898-27.074,5.878c1.117-7.491-15.874-10.561-20.205-6.655
	C164.921,417.017,165.89,431.686,171.775,433.827z M224.746,501.693c-0.96,3.771-4.369,6.564-8.439,6.564
	c-4.068,0-7.479-2.795-8.439-6.567c-18.31,4.104-32.091,21.261-32.091,41.761c0,23.55,18.183,42.707,40.531,42.707
	c22.349,0,40.532-19.157,40.532-42.707C256.838,522.953,243.056,505.799,224.746,501.693z M216.307,504.578
	c4.099,0,7.422-3.321,7.422-7.422c0-1.153-0.27-2.241-0.739-3.215c-1.199-2.488-3.738-4.208-6.684-4.208
	c-2.951,0-5.493,1.726-6.692,4.22c-0.465,0.97-0.734,2.053-0.734,3.203C208.88,501.257,212.207,504.578,216.307,504.578z
	 M202.677,586.306c-17.052-6.004-29.373-22.944-29.373-42.854c0-21.778,14.747-39.996,34.297-44.238
	c0.033-0.888,0.196-1.743,0.476-2.544c-27.12-3.245-41.249-21.801-43.709-25.331c-0.097-0.114-0.2-0.226-0.294-0.341
	c-26.377,10.609-37.652,29.988-35.081,43.965c1.607,8.71,8.485,13.906,18.405,13.906c0.014,0,0.029,0,0.046,0
	c3.752-0.011,6.546-1.083,8.467-2.789c-2.552-0.587-5.833-2.185-8.423-6.336c4.504,1.943,8.593,1.91,11.3,1.516
	c0.373-1.477,0.446-3.066,0.214-4.679c-2.802,0.278-7.082-0.13-11.217-3.855c3.893,0.499,7.175-0.145,9.614-0.994
	c-1.942-3.692-5.461-6.91-10.376-8.323c10.957-5.351,21.478,4.205,19.558,17.887c-0.741,5.282-3.52,9.495-7.687,12.14
	c3.269,2.638,5.755,6.337,6.57,10.935c-0.043-0.04-0.08-0.082-0.12-0.119c-5.643-4.929-12.652-7.752-19.234-7.752
	c-1.333,0-2.624,0.118-3.857,0.351c-2.677,0.493-5.077,1.527-7.088,3.019c-0.862,0.636-1.661,1.35-2.363,2.156
	c-18.426,21.101,24.478,53.892,39.813,33.276C181.909,581,192.167,584.629,202.677,586.306z M299.813,542.022
	c-0.705-0.807-1.499-1.521-2.367-2.156c-2.011-1.491-4.409-2.525-7.085-3.019c-1.23-0.233-2.521-0.35-3.858-0.35
	c-6.579,0-13.592,2.822-19.232,7.752c-0.043,0.036-0.079,0.078-0.121,0.119c1.74-9.761,10.949-15.538,19.354-15.538
	c1.891,0,3.727,0.18,5.483,0.522c3.326-18.367-10.385-41.354-10.385-41.354s7.642,4.893,13.111,14.622
	c7.972-23.482,2.271-42.555-8.543-50.002c-7.293-5.025-15.827-3.831-22.844,3.184c-0.007,0.009-0.021,0.02-0.032,0.029
	c-2.65,2.658-3.858,5.396-4.016,7.959c2.221-1.386,5.668-2.577,10.438-1.474c-4.555,1.814-7.428,4.726-9.067,6.916
	c0.784,1.312,1.86,2.487,3.161,3.463c1.787-2.176,5.104-4.92,10.659-5.208c-3.105,2.407-4.973,5.176-6.096,7.504
	c3.983,1.236,8.75,1.022,13.227-1.45c-3.179,9.24-12.927,11.492-20.95,6.352c-7.104,6.613-19.029,14.732-36.111,16.776
	c0-0.001,0-0.001,0-0.002c0.282,0.804,0.444,1.664,0.478,2.557c19.549,4.242,34.298,22.45,34.298,44.228
	c0,19.909-12.322,36.852-29.374,42.854c10.51-1.677,20.77-5.306,30.059-11.008C275.333,595.914,318.24,563.122,299.813,542.022z
	 M205.438,434.611c-1.258-3.413-4.792-5.028-4.792-5.028s-6.824,1.495-10.608,8.44C189.164,439.626,194.003,434.671,205.438,434.611
	z M190.791,449.259c1.356-1.173-10.384-4.732-18.125,0.818C182.326,448.076,189.164,450.665,190.791,449.259z M173.801,441.47
	c9.833,0.746,15.693,5.12,17.647,4.222C193.075,444.939,182.778,438.27,173.801,441.47z M257.511,430.287
	c4.611-3.353,4.252-12.093,2.635-13.109c-1.617-1.018-8.977-2.095-12.869,4.369C254.463,425.019,257.511,430.287,257.511,430.287z
	 M144.154,552.072c1.468-1.002,1.635-3.306,0.38-5.146c-1.257-1.841-3.464-2.524-4.932-1.52c-1.464,1-1.635,3.302-0.377,5.142
	C140.483,552.392,142.686,553.072,144.154,552.072z M280.422,549.556c1.691,0.543,3.614-0.741,4.29-2.863
	c0.687-2.12-0.129-4.278-1.819-4.824c-1.694-0.544-3.619,0.736-4.298,2.859C277.913,546.851,278.73,549.011,280.422,549.556z
	 M293.012,545.406c-1.468-1.005-3.671-0.321-4.929,1.52c-1.253,1.841-1.091,4.144,0.378,5.146c1.467,0.999,3.673,0.319,4.931-1.525
	C294.65,548.707,294.475,546.405,293.012,545.406z M285.487,554.469c-3.916-2.311-11.959-2.609-14.359,1.464
	c-2.396,4.066,0.41,9.552,5.948,12.815c5.531,3.261,11.693,3.066,14.09-1.001C293.563,563.674,289.414,556.788,285.487,554.469z
	 M175.102,430.287c0,0,3.052-5.269,10.239-8.74c-3.893-6.464-11.254-5.387-12.87-4.369
	C170.854,418.194,170.495,426.934,175.102,430.287z M294.951,553.681c-1.726,1.409-2.224,3.664-1.098,5.04
	c1.119,1.375,3.432,1.351,5.158-0.057c1.728-1.41,2.22-3.669,1.099-5.042C298.989,552.248,296.679,552.274,294.951,553.681z
	 M152.193,549.556c1.692-0.545,2.508-2.705,1.831-4.828c-0.685-2.123-2.606-3.403-4.298-2.859c-1.69,0.546-2.505,2.704-1.824,4.824
	C148.583,548.814,150.504,550.099,152.193,549.556z M137.668,553.681c-1.73-1.406-4.042-1.433-5.163-0.06
	c-1.122,1.374-0.629,3.633,1.1,5.042c1.729,1.408,4.038,1.433,5.161,0.057C139.885,557.345,139.392,555.089,137.668,553.681z
	 M147.126,554.469c-3.926,2.319-8.075,9.205-5.675,13.278c2.399,4.068,8.556,4.262,14.09,1.001
	c5.534-3.264,8.343-8.749,5.948-12.815C159.086,551.858,151.047,552.158,147.126,554.469z"/>
</svg>
