<?xml version="1.0" encoding="iso-8859-1"?>
<!-- Generator: Adobe Illustrator 19.0.0, SVG Export Plug-In . SVG Version: 6.00 Build 0)  -->
<svg xmlns="http://www.w3.org/2000/svg" xmlns:xlink="http://www.w3.org/1999/xlink" version="1.1" id="Capa_1" x="0px" y="0px" viewBox="0 0 512.001 512.001" style="enable-background:new 0 0 512.001 512.001;" xml:space="preserve" width="512px" height="512px">
<g>
	<g>
		<path d="M296,77.198c-16.542,0-30,13.458-30,30c0,16.543,13.457,30.001,30,30.001c16.542,0,30-13.458,30-30.001    C326,90.656,312.542,77.198,296,77.198z M296,117.199c-5.514,0-10-4.486-10-10.001c0-5.513,4.485-10,10-10c5.514,0,10,4.486,10,10    C306,112.713,301.514,117.199,296,117.199z" fill="#FFFFFF"/>
	</g>
</g>
<g>
	<g>
		<path d="M216,77.198c-16.542,0-30,13.458-30,30c0,16.543,13.458,30.001,30,30.001s30-13.458,30-30.001    C246,90.656,232.542,77.198,216,77.198z M216,117.199c-5.514,0-10-4.486-10-10.001c0-5.514,4.486-10,10-10c5.514,0,10,4.486,10,10    C226,112.713,221.514,117.199,216,117.199z" fill="#FFFFFF"/>
	</g>
</g>
<g>
	<g>
		<path d="M427.6,205.799H303.199v-16.6H354.4c5.523,0,10-4.478,10-10v-41h11c17.093,0,30.999-13.906,30.999-31    s-13.906-31-30.999-31h-11v-24.2c0-5.522-4.477-10-10-10H287v-11C287,13.906,273.093,0,256,0c-17.093,0-31,13.906-31,30.999v11    h-67.4c-5.523,0-10,4.478-10,10v24.2h-11c-17.093,0-31,13.906-31,31s13.907,31,31,31h11v41c0,5.522,4.477,10,10,10h51.201v16.6    h-124.4c-5.523,0-10,4.477-10,10V376c0,5.522,4.477,10,10,10h36.6c5.523,0,10-4.478,10-10v-97.564h16.6v223.565h-0.002    c0,5.522,4.477,10,10,10h74.4c5.523,0,10-4.477,10-10V386h28v116.001c0,5.522,4.477,10,10,10h74.4c5.523,0,10-4.477,10-10h0.001    V278.436H381V376c0,5.522,4.477,10,10,10h36.6c5.523,0,10-4.478,10-10V215.799C437.6,210.276,433.123,205.799,427.6,205.799z     M364.4,96.199h11c6.065,0,10.999,4.935,10.999,11s-4.934,11-10.999,11h-11V96.199z M147.599,118.199h-11c-6.065,0-11-4.935-11-11    s4.935-11,11-11h11V118.199z M111,366H94.4V225.799H111V366z M147.6,258.436H131v-32.637h16.6V258.436z M245,30.999    C245,24.935,249.935,20,256,20s11,4.935,11,10.999v11h-22V30.999z M167.599,169.199v-107.2H344.4v107.2H167.599z M228.801,189.199    h54.398v16.6h-54.398V189.199z M222,475.401v16.6h-54.4v-16.6H222z M167.6,455.401V386H222v69.401H167.6z M167.599,366V225.799    H344.4V366H167.599z M290,455.401V386h54.4v69.401H290z M344.4,475.401v16.6H290v-16.6H344.4z M381,258.436h-16.6v-32.637H381    V258.436z M417.599,366h-16.6V225.799h16.6V366z" fill="#FFFFFF"/>
	</g>
</g>
<g>
	<g>
		<path d="M216.957,266.799h-0.256c-5.523,0-10,4.478-10,10c0,5.522,4.477,10,10,10h0.256c5.523,0,10-4.478,10-10    C226.957,271.277,222.48,266.799,216.957,266.799z" fill="#FFFFFF"/>
	</g>
</g>
<g>
	<g>
		<path d="M295.298,266.796h-47.625c-5.523,0-10,4.477-10,10c0,5.522,4.477,10,10,10h47.625c5.523,0,10-4.478,10-10    C305.298,271.274,300.821,266.796,295.298,266.796z" fill="#FFFFFF"/>
	</g>
</g>
<g>
	<g>
		<path d="M264.326,304.999h-47.625c-5.523,0-10,4.478-10,10c0,5.523,4.477,10,10,10h47.625c5.523,0,10-4.477,10-10    C274.326,309.477,269.849,304.999,264.326,304.999z" fill="#FFFFFF"/>
	</g>
</g>
<g>
	<g>
		<path d="M295.298,305.003h-0.256c-5.523,0-10,4.478-10,10c0,5.522,4.477,10,10,10h0.256c5.523,0,10-4.478,10-10    C305.298,309.48,300.821,305.003,295.298,305.003z" fill="#FFFFFF"/>
	</g>
</g>
<g>
</g>
<g>
</g>
<g>
</g>
<g>
</g>
<g>
</g>
<g>
</g>
<g>
</g>
<g>
</g>
<g>
</g>
<g>
</g>
<g>
</g>
<g>
</g>
<g>
</g>
<g>
</g>
<g>
</g>
</svg>
