<?xml version="1.0" encoding="UTF-8"?>
<!DOCTYPE svg PUBLIC "-//W3C//DTD SVG 1.1//EN" "http://www.w3.org/Graphics/SVG/1.1/DTD/svg11.dtd">
<svg version="1.1" xmlns="http://www.w3.org/2000/svg" xmlns:xlink="http://www.w3.org/1999/xlink" x="0" y="0" width="512" height="512" viewBox="0, 0, 512, 512">
  <g id="Layer_1">
    <path d="M295.999,77.198 C279.457,77.198 265.999,90.656 265.999,107.198 C265.999,123.741 279.456,137.199 295.999,137.199 C312.541,137.199 325.999,123.741 325.999,107.198 C325.999,90.656 312.541,77.198 295.999,77.198 z M295.999,117.199 C290.485,117.199 285.999,112.713 285.999,107.198 C285.999,101.685 290.484,97.198 295.999,97.198 C301.513,97.198 305.999,101.684 305.999,107.198 C305.999,112.713 301.513,117.199 295.999,117.199 z" fill="#323943"/>
    <path d="M216,77.198 C199.458,77.198 186,90.656 186,107.198 C186,123.741 199.458,137.199 216,137.199 C232.542,137.199 246,123.741 246,107.198 C246,90.656 232.542,77.198 216,77.198 z M216,117.199 C210.486,117.199 206,112.713 206,107.198 C206,101.684 210.486,97.198 216,97.198 C221.514,97.198 226,101.684 226,107.198 C226,112.713 221.514,117.199 216,117.199 z" fill="#323943"/>
    <path d="M427.599,205.799 L303.198,205.799 L303.198,189.199 L354.399,189.199 C359.922,189.199 364.399,184.721 364.399,179.199 L364.399,138.199 L375.399,138.199 C392.492,138.199 406.398,124.293 406.398,107.199 C406.398,90.105 392.492,76.199 375.399,76.199 L364.399,76.199 L364.399,51.999 C364.399,46.477 359.922,41.999 354.399,41.999 L286.999,41.999 L286.999,30.999 C286.999,13.906 273.092,-0 255.999,-0 C238.907,-0 225,13.906 225,30.999 L225,41.999 L157.6,41.999 C152.077,41.999 147.6,46.477 147.6,51.999 L147.6,76.199 L136.6,76.199 C119.507,76.199 105.6,90.105 105.6,107.199 C105.6,124.293 119.507,138.199 136.6,138.199 L147.6,138.199 L147.6,179.199 C147.6,184.721 152.077,189.199 157.6,189.199 L208.801,189.199 L208.801,205.799 L84.401,205.799 C78.878,205.799 74.401,210.276 74.401,215.799 L74.401,375.999 C74.401,381.521 78.878,385.999 84.401,385.999 L121.001,385.999 C126.524,385.999 131.001,381.521 131.001,375.999 L131.001,278.435 L147.601,278.435 L147.601,502 L147.599,502 C147.599,507.522 152.076,512 157.599,512 L231.999,512 C237.522,512 241.999,507.523 241.999,502 L241.999,385.999 L269.998,385.999 L269.998,502 C269.998,507.522 274.475,512 279.998,512 L354.398,512 C359.921,512 364.398,507.523 364.398,502 L364.399,502 L364.399,278.435 L380.999,278.435 L380.999,375.999 C380.999,381.521 385.476,385.999 390.999,385.999 L427.599,385.999 C433.122,385.999 437.599,381.521 437.599,375.999 L437.599,215.799 C437.599,210.276 433.122,205.799 427.599,205.799 z M364.399,96.199 L375.399,96.199 C381.464,96.199 386.398,101.134 386.398,107.199 C386.398,113.264 381.464,118.199 375.399,118.199 L364.399,118.199 L364.399,96.199 z M147.599,118.199 L136.599,118.199 C130.534,118.199 125.599,113.264 125.599,107.199 C125.599,101.134 130.534,96.199 136.599,96.199 L147.599,96.199 L147.599,118.199 z M111,365.999 L94.4,365.999 L94.4,225.799 L111,225.799 L111,365.999 z M147.6,258.435 L131,258.435 L131,225.799 L147.6,225.799 L147.6,258.435 z M245,30.999 C245,24.935 249.935,20 255.999,20 C262.064,20 266.999,24.935 266.999,30.999 L266.999,41.999 L245,41.999 L245,30.999 z M167.599,169.199 L167.599,61.999 L344.399,61.999 L344.399,169.199 L167.599,169.199 z M228.801,189.199 L283.198,189.199 L283.198,205.799 L228.801,205.799 L228.801,189.199 z M222,475.4 L222,492 L167.6,492 L167.6,475.4 L222,475.4 z M167.6,455.4 L167.6,385.999 L222,385.999 L222,455.4 L167.6,455.4 z M167.599,365.999 L167.599,225.799 L344.399,225.799 L344.399,365.999 L167.599,365.999 z M289.999,455.4 L289.999,385.999 L344.399,385.999 L344.399,455.4 L289.999,455.4 z M344.399,475.4 L344.399,492 L289.999,492 L289.999,475.4 L344.399,475.4 z M380.999,258.435 L364.399,258.435 L364.399,225.799 L380.999,225.799 L380.999,258.435 z M417.598,365.999 L400.998,365.999 L400.998,225.799 L417.598,225.799 L417.598,365.999 z" fill="#323943"/>
    <path d="M216.957,266.798 L216.701,266.798 C211.178,266.798 206.701,271.276 206.701,276.798 C206.701,282.32 211.178,286.798 216.701,286.798 L216.957,286.798 C222.48,286.798 226.957,282.32 226.957,276.798 C226.957,271.276 222.48,266.798 216.957,266.798 z" fill="#323943"/>
    <path d="M295.297,266.796 L247.673,266.796 C242.15,266.796 237.673,271.272 237.673,276.795 C237.673,282.317 242.15,286.795 247.673,286.795 L295.297,286.795 C300.82,286.795 305.297,282.317 305.297,276.795 C305.297,271.273 300.82,266.796 295.297,266.796 z" fill="#323943"/>
    <path d="M264.325,304.998 L216.701,304.998 C211.178,304.998 206.701,309.476 206.701,314.998 C206.701,320.521 211.178,324.998 216.701,324.998 L264.325,324.998 C269.848,324.998 274.325,320.521 274.325,314.998 C274.325,309.476 269.848,304.998 264.325,304.998 z" fill="#323943"/>
    <path d="M295.297,305.002 L295.041,305.002 C289.518,305.002 285.041,309.48 285.041,315.002 C285.041,320.524 289.518,325.002 295.041,325.002 L295.297,325.002 C300.82,325.002 305.297,320.524 305.297,315.002 C305.297,309.479 300.82,305.002 295.297,305.002 z" fill="#323943"/>
  </g>
</svg>
