<?xml version="1.0" standalone="no"?>
<!DOCTYPE svg PUBLIC "-//W3C//DTD SVG 20010904//EN"
 "http://www.w3.org/TR/2001/REC-SVG-20010904/DTD/svg10.dtd">
<svg version="1.0" xmlns="http://www.w3.org/2000/svg"
 width="512.000000pt" height="512.000000pt" viewBox="0 0 512.000000 512.000000"
 preserveAspectRatio="xMidYMid meet">
<metadata>
Created by potrace 1.11, written by Peter Selinger 2001-2013
</metadata>
<g transform="translate(0.000000,512.000000) scale(0.100000,-0.100000)"
fill="#000000" stroke="none">
<path d="M1430 5062 c-68 -6 -195 -53 -246 -90 -82 -62 -147 -182 -170 -312
-21 -122 -4 -296 39 -406 l24 -60 -19 -50 c-70 -175 -96 -438 -59 -590 l18
-72 -36 -18 c-20 -10 -39 -18 -43 -18 -22 -2 -234 -132 -321 -197 -360 -267
-570 -615 -583 -969 -3 -91 0 -135 20 -235 19 -94 88 -223 166 -308 l48 -53
-27 -24 c-46 -41 -110 -129 -141 -194 -149 -308 -57 -681 241 -982 215 -218
483 -337 743 -329 61 1 127 6 146 10 47 9 153 50 200 76 l37 21 69 -32 c139
-65 418 -154 544 -174 19 -3 59 -10 89 -16 93 -18 209 -25 391 -25 199 0 325
11 465 41 39 9 81 18 94 20 51 10 176 47 254 75 93 33 96 34 193 79 l70 32 65
-32 c101 -51 181 -71 304 -75 261 -9 523 101 741 311 381 370 438 850 137
1174 -30 33 -68 68 -83 77 l-28 16 1 151 c2 141 -5 233 -19 270 -3 9 12 65 35
125 121 324 166 615 137 888 -16 150 -64 319 -123 438 -141 281 -393 467 -654
483 l-85 5 -18 49 c-17 48 -17 49 9 123 35 101 40 140 39 280 0 132 -15 198
-64 294 -37 71 -72 110 -135 150 -124 79 -325 97 -519 46 -65 -17 -191 -77
-219 -104 -18 -17 -21 -17 -85 1 -37 10 -103 25 -147 33 -44 8 -93 17 -110 21
-65 13 -420 13 -515 -1 -129 -19 -305 -57 -318 -69 -2 -3 -31 13 -64 34 -128
83 -318 127 -488 112z"/>
</g>
</svg>
